<?xml version="1.0" encoding="UTF-8"?>
<svg width="20px" height="20px" viewBox="0 0 20 20" version="1.1" xmlns="http://www.w3.org/2000/svg" xmlns:xlink="http://www.w3.org/1999/xlink">
    <!-- Generator: Sketch 52.4 (67378) - http://www.bohemiancoding.com/sketch -->
    <title>Path</title>
    <desc>Created with Sketch.</desc>
    <g id="About/Team" stroke="none" stroke-width="1" fill="none" fill-rule="evenodd">
        <g id="Mobile" transform="translate(-361.000000, -26.000000)" fill="#FFFFFF">
            <path d="M363.737308,26.4432579 C363.099278,25.8400489 362.097046,25.8542225 361.476329,26.4752326 C360.855611,27.0962427 360.84191,28.0984817 361.44542,28.7362274 L368.705949,36 L361.443258,43.2626916 C360.840049,43.9007218 360.854222,44.9029541 361.475233,45.5236715 C362.096243,46.1443888 363.098482,46.1580897 363.736227,45.5545799 L371,38.2940505 L378.262692,45.5567421 C378.900722,46.1599511 379.902954,46.1457775 380.523671,45.5247674 C381.144389,44.9037573 381.15809,43.9015183 380.55458,43.2637726 L373.294051,36 L380.556742,28.7373084 C381.159951,28.0992782 381.145778,27.0970459 380.524767,26.4763285 C379.903757,25.8556112 378.901518,25.8419103 378.263773,26.4454201 L371,33.7059495 L363.737308,26.4432579 Z" id="Path"></path>
        </g>
    </g>
</svg>