<?xml version="1.0" encoding="UTF-8"?>
<svg class="linkedinTeamSVG" viewBox="0 0 17 16" version="1.1" xmlns="http://www.w3.org/2000/svg" xmlns:xlink="http://www.w3.org/1999/xlink">
    <!-- Generator: Sketch 52.4 (67378) - http://www.bohemiancoding.com/sketch -->
    <title>social_linkedin_fill</title>
    <desc>Created with Sketch.</desc>
    <g id="About/Team" stroke="none" stroke-width="1" fill="none" fill-rule="evenodd">
        <g id="About" transform="translate(-639.000000, -1332.000000)" fill="">
            <g id="people" transform="translate(203.000000, 994.000000)">
                <g id="Group-4">
                    <g id="Group-3">
                        <g id="onePerson">
                            <g id="In" transform="translate(418.000000, 321.000000)">
                                <g id="social_linkedin_fill" transform="translate(17.680000, 17.000000)">
                                    <path d="M16.4637635,15.8299412 L13.1288,15.8299412 L13.1288,10.8117838 C13.1288,9.61535418 13.1075622,8.07597208 11.3960432,8.07597208 C9.66016311,8.07597208 9.39531491,9.3799122 9.39531491,10.7264962 L9.39531491,15.8299412 L6.06409926,15.8299412 L6.06409926,5.51133628 L9.26101689,5.51133628 L9.26101689,6.92218628 L9.3072404,6.92218628 C9.75198548,6.11075233 10.8401118,5.25547331 12.462307,5.25547331 C15.8397462,5.25547331 16.4637635,7.39186899 16.4637635,10.1709252 L16.4637635,15.8299412 L16.4637635,15.8299412 Z M2.30375456,4.10168751 C1.23249358,4.10168751 0.368613723,3.26863134 0.368613723,2.24157578 C0.368613723,1.21512084 1.23249358,0.382064667 2.30375456,0.382064667 C3.37064306,0.382064667 4.23639684,1.21512084 4.23639684,2.24157578 C4.23639684,3.26863134 3.37064306,4.10168751 2.30375456,4.10168751 L2.30375456,4.10168751 Z M0.63346192,15.8299412 L3.97217328,15.8299412 L3.97217328,5.51133628 L0.63346192,5.51133628 L0.63346192,15.8299412 Z" id="Fill-4"></path>
                                </g>
                            </g>
                        </g>
                    </g>
                </g>
            </g>
        </g>
    </g>
</svg>