<?xml version="1.0" encoding="UTF-8"?>
<svg class="threeIcon" viewBox="0 0 275 211" version="1.1" xmlns="http://www.w3.org/2000/svg" xmlns:xlink="http://www.w3.org/1999/xlink">
    <!-- Generator: Sketch 52.4 (67378) - http://www.bohemiancoding.com/sketch -->
    <title>undraw_relaxing_at_home_9tyc (1)</title>
    <desc>Created with Sketch.</desc>
    <defs>
        <linearGradient x1="49.9984163%" y1="99.9954123%" x2="49.9984163%" y2="-0.0104058941%" id="linearGradient-1">
            <stop stop-color="#808080" stop-opacity="0.25" offset="0%"></stop>
            <stop stop-color="#808080" stop-opacity="0.12" offset="54%"></stop>
            <stop stop-color="#808080" stop-opacity="0.1" offset="100%"></stop>
        </linearGradient>
    </defs>
    <g id="About/Team" stroke="none" stroke-width="1" fill="none" fill-rule="evenodd">
        <g id="Customers" transform="translate(-936.000000, -1890.000000)">
            <g id="threeSection" transform="translate(216.000000, 1111.000000)">
                <g id="undraw_relaxing_at_home_9tyc-(1)" transform="translate(720.000000, 779.825581)">
                    <path d="M247.918589,144.324262 C246.292435,148.243773 244.158902,152.000923 241.17297,154.882841 C237.535055,158.393911 233.016836,160.309271 228.178967,161.225092 C226.752845,161.490918 225.313046,161.677245 223.866236,161.78321 C220.043127,162.077491 216.12869,161.882149 212.374077,161.473708 C203.177527,160.469671 194.107561,158.529021 185.305351,155.681965 C183.859317,155.215175 182.42174,154.723862 180.99262,154.208026 C178.836255,153.433426 176.699339,152.603859 174.581873,151.719327 C165.956411,148.114391 157.039207,143.517528 147.863238,144.943266 C143.416052,145.635839 139.237777,147.733856 134.780443,148.357934 C131.651842,148.767271 128.472766,148.539455 125.434502,147.688192 C123.963437,147.294682 122.522224,146.797039 121.121771,146.199031 C117.965871,144.830688 114.962585,143.134324 112.161439,141.137915 C105.438653,136.439576 99.4059041,130.614852 92.327952,126.545664 C84.5244465,122.057887 75.8863007,119.924354 67.0857934,118.333718 C65.6532903,118.074954 64.2157134,117.828029 62.7730627,117.592943 C58.7013376,116.920664 54.6194649,116.299124 50.595941,115.563423 C46.7195572,114.848017 42.7746771,113.972786 39.4005996,111.821494 C36.9930812,110.28667 34.9686347,108.160747 33.1116236,105.920664 C29.6859939,101.769756 26.7476727,97.2397027 24.3542435,92.4192804 C24.2273985,92.1655904 24.1030904,91.9119004 23.9813192,91.6582103 C20.2546125,84.0119926 17.748155,75.675738 16.2107934,67.0502768 C16.1651292,66.7965867 16.1220018,66.5428967 16.0788745,66.2892066 C14.6328413,57.8337177 14.1051661,49.091559 14.2649908,40.4128229 L14.2802122,39.6517528 C14.3791513,35.366928 14.6455258,31.0998616 15.0412823,26.8936808 C15.3254151,23.935655 15.7059502,20.8660055 17.238238,18.3798432 C18.7705258,15.8936808 21.2642989,14.2954336 23.7606089,12.9660978 C34.7453875,7.11346863 45.2760609,5.4847786 57.0929428,8.32103321 C58.9905443,8.77513838 60.8805351,9.26476015 62.7705258,9.77214022 C64.2089483,10.1577491 65.6473708,10.5560424 67.0832565,10.9568727 C77.0126845,13.7195572 86.9065959,16.6648985 97.1759686,17.545203 C98.167051,17.6314576 99.1589791,17.697417 100.151753,17.7430812 C102.115314,17.8344096 104.078875,17.8547048 106.042435,17.8039668 C111.100487,17.6620047 116.140909,17.1430379 121.121771,16.2513838 C122.562731,16.0027675 124.000308,15.727091 125.434502,15.4243542 C131.624539,14.133072 137.758764,12.4105166 143.79405,10.5053044 C145.026983,10.116313 146.258226,9.72055658 147.487777,9.31803506 C150.258072,8.41236162 153.028367,7.48892989 155.803736,6.59086716 C164.089253,3.90682657 172.425507,1.45364391 180.99262,0.464252768 C181.724938,0.381380689 182.458948,0.307810578 183.194649,0.243542435 C183.897371,0.182656827 184.602629,0.13445572 185.305351,0.0989391144 C198.611393,-0.611392989 212.069649,2.59778598 223.866236,9.16582103 C225.329182,9.98101169 226.766759,10.8469403 228.178967,11.763607 C230.135763,13.037131 232.032518,14.4070572 233.869234,15.8733856 C237.633994,18.8796125 241.157749,22.3018911 243.84179,26.4142066 C246.457334,30.4199723 248.15452,34.9178967 249.131227,39.646679 C249.184502,39.900369 249.23524,40.154059 249.280904,40.4077491 C250.714253,48.0412823 250.267758,56.2278598 248.659363,63.8766144 C248.489391,64.6782749 248.309271,65.4824723 248.121541,66.2841328 C248.063192,66.5378229 248.002306,66.7915129 247.941421,67.045203 C246.206181,74.2779059 243.98893,81.4903137 244.567343,88.8853782 C244.640913,89.8164207 244.757611,90.7398524 244.909825,91.6531365 C244.952952,91.9068266 244.996079,92.1605166 245.04428,92.4142066 C246.175738,98.4469557 248.748155,104.170203 250.29059,110.144603 C253.185899,121.497378 252.354311,133.480247 247.918589,144.324262 Z" id="Path" fill="#0079FF" opacity="0.1"></path>
                    <path d="M228.178967,40.4077491 L249.280904,40.4077491 C249.23524,40.154059 249.184502,39.900369 249.131227,39.646679 L228.178967,39.646679 L228.178967,11.763607 C226.76845,10.8469403 225.330873,9.98101169 223.866236,9.16582103 L223.866236,39.646679 L185.305351,39.646679 L185.305351,0.0989391144 C184.602629,0.13445572 183.897371,0.182656827 183.194649,0.243542435 C182.491928,0.304428044 181.725784,0.380535055 180.99262,0.464252768 L180.99262,39.646679 L125.941882,39.646679 L125.809963,39.5020756 L155.803736,6.59086716 C153.028367,7.48892989 150.258072,8.41236162 147.487777,9.31803506 L125.434502,33.5276753 L125.434502,15.4243542 C123.998616,15.7253998 122.561039,16.0010763 121.121771,16.2513838 L121.121771,34.3521679 L106.042435,17.798893 C104.078875,17.8462485 102.115314,17.8259533 100.151753,17.7380074 L119.980166,39.4970018 L119.848247,39.6416052 L67.0807196,39.6416052 L67.0807196,10.949262 C65.6448339,10.5484317 64.2064114,10.1501384 62.7679889,9.76452952 L62.7679889,39.646679 L14.2751384,39.646679 L14.259917,40.4077491 L62.7730627,40.4077491 L62.7730627,66.2841328 L16.0738007,66.2841328 C16.116928,66.5378229 16.1600554,66.7915129 16.2057196,67.045203 L62.7730627,67.045203 L62.7730627,91.6531365 L23.9762454,91.6531365 C24.0980166,91.9068266 24.2223247,92.1605166 24.3491697,92.4142066 L62.7730627,92.4142066 L62.7730627,117.59548 C64.2140221,117.830566 65.651599,118.077491 67.0857934,118.336255 L67.0857934,92.4142066 L121.121771,92.4142066 L121.121771,146.196494 C122.522224,146.794502 123.963437,147.292145 125.434502,147.685655 L125.434502,92.4142066 L180.99262,92.4142066 L180.99262,154.205489 C182.423432,154.723017 183.861009,155.21433 185.305351,155.679428 L185.305351,92.4142066 L223.866236,92.4142066 L223.866236,161.780673 C225.313046,161.674708 226.752845,161.488381 228.178967,161.222555 L228.178967,92.4142066 L245.04428,92.4142066 C244.996079,92.1605166 244.952952,91.9068266 244.909825,91.6531365 L228.166282,91.6531365 L228.166282,67.045203 L247.928736,67.045203 C247.989622,66.7915129 248.050507,66.5378229 248.108856,66.2841328 L228.178967,66.2841328 L228.178967,40.4077491 Z M223.866236,40.4077491 L223.866236,66.2841328 L185.305351,66.2841328 L185.305351,40.4077491 L223.866236,40.4077491 Z M180.99262,66.2841328 L125.434502,66.2841328 L125.434502,40.4077491 L180.99262,40.4077491 L180.99262,66.2841328 Z M67.0857934,40.4077491 L120.360701,40.4077491 L121.121771,41.1003229 L121.121771,66.2841328 L67.0857934,66.2841328 L67.0857934,40.4077491 Z M67.0857934,91.6531365 L67.0857934,67.045203 L121.121771,67.045203 L121.121771,91.6531365 L67.0857934,91.6531365 Z M125.434502,91.6531365 L125.434502,67.045203 L180.99262,67.045203 L180.99262,91.6531365 L125.434502,91.6531365 Z M223.866236,91.6531365 L185.305351,91.6531365 L185.305351,67.045203 L223.866236,67.045203 L223.866236,91.6531365 Z" id="Shape" fill="#0079FF" fill-rule="nonzero" opacity="0.1"></path>
                    <path d="M205.326568,22.5885609 L204.991697,22.5885609 C205.231011,22.4498444 205.384504,22.2000608 205.400138,21.923893 C205.400138,21.3987546 204.758303,20.9700185 203.9744,20.9700185 L193.963792,20.9700185 C193.179889,20.9700185 192.535517,21.3987546 192.535517,21.923893 C192.535517,22.4490314 193.179889,22.8777675 193.963792,22.8777675 L194.298662,22.8777675 C194.059017,23.0161426 193.905401,23.2661253 193.890221,23.5424354 C193.890221,23.9889299 194.357011,24.3643911 194.981089,24.4658672 L192.114391,24.4658672 C191.327952,24.4658672 190.686116,24.8946033 190.686116,25.4197417 C190.686116,25.9448801 191.327952,26.3736162 192.114391,26.3736162 L202.112315,26.3736162 C202.898755,26.3736162 203.54059,25.9423432 203.54059,25.4197417 C203.54059,24.9732472 203.071264,24.5952491 202.447186,24.4937731 L205.326568,24.4937731 C206.11047,24.4937731 206.752306,24.0650369 206.752306,23.5424354 C206.752306,23.0198339 206.11047,22.5885609 205.326568,22.5885609 Z" id="Path" fill="#0079FF" opacity="0.1"></path>
                    <path d="M96.9603321,31.6605166 L96.6254613,31.6605166 C96.8637906,31.5207931 97.0169245,31.2715937 97.0339022,30.9958487 C97.0339022,30.4732472 96.3920664,30.0445111 95.6056273,30.0445111 L85.607703,30.0445111 C84.8212638,30.0445111 84.179428,30.4732472 84.179428,30.9958487 C84.179428,31.5209871 84.8212638,31.9497232 85.607703,31.9497232 L85.9400369,31.9497232 C85.7023555,32.089722 85.5501205,32.3390069 85.5341328,32.6143911 C85.5341328,33.0608856 86.0009225,33.4388838 86.625,33.5403598 L83.7456181,33.5403598 C82.9617159,33.5403598 82.3198801,33.9690959 82.3198801,34.4916974 C82.3198801,35.0142989 82.9617159,35.445572 83.7456181,35.445572 L93.7562269,35.445572 C94.5401292,35.445572 95.1845018,35.0168358 95.1845018,34.4916974 C95.1845018,34.045203 94.7151753,33.6697417 94.0910978,33.5682657 L96.9704797,33.5682657 C97.7543819,33.5682657 98.3962177,33.1395295 98.3962177,32.6143911 C98.3962177,32.0892528 97.7442343,31.6605166 96.9603321,31.6605166 Z" id="Path" fill="#0079FF" opacity="0.1"></path>
                    <path d="M220.664668,70.4903137 L220.329797,70.4903137 C220.568126,70.3505901 220.72126,70.1013907 220.738238,69.8256458 C220.738238,69.3005074 220.096402,68.8717712 219.309963,68.8717712 L209.312039,68.8717712 C208.5256,68.8717712 207.883764,69.3005074 207.883764,69.8256458 C207.883764,70.3507841 208.5256,70.7795203 209.312039,70.7795203 L209.644373,70.7795203 C209.406691,70.919519 209.254456,71.168804 209.238469,71.4441882 C209.238469,71.8906827 209.705258,72.2661439 210.329336,72.3676199 L207.449954,72.3676199 C206.666052,72.3676199 206.024216,72.7963561 206.024216,73.3214945 C206.024216,73.8466328 206.666052,74.275369 207.449954,74.275369 L217.450415,74.275369 C218.234317,74.275369 218.87869,73.8466328 218.87869,73.3214945 C218.87869,72.875 218.409363,72.4970018 217.785286,72.3955258 L220.664668,72.3955258 C221.44857,72.3955258 222.090406,71.9667897 222.090406,71.4441882 C222.090406,70.9215867 221.44857,70.4903137 220.664668,70.4903137 Z" id="Path" fill="#0079FF" opacity="0.1"></path>
                    <ellipse id="Oval" fill="#0079FF" opacity="0.1" cx="133.33441" cy="184.780212" rx="107.199262" ry="11.8346402"></ellipse>
                    <path d="M155.621079,100.577952 L155.621079,137.79428 C155.622525,138.426188 155.537164,139.0553 155.367389,139.663976 C154.527599,142.706256 151.760073,144.813562 148.604013,144.813884 L117.146448,144.813884 C115.284527,144.814557 113.498673,144.07521 112.182096,142.758633 C110.865519,141.442056 110.126172,139.656201 110.126845,137.79428 L110.126845,100.577952 C110.126172,98.7160312 110.865519,96.9301764 112.182096,95.6135994 C113.498673,94.2970225 115.284527,93.5576754 117.146448,93.5583487 L148.604013,93.5583487 C151.760073,93.5586705 154.527599,95.6659765 155.367389,98.7082565 C155.537164,99.3169324 155.622525,99.9460441 155.621079,100.577952 Z" id="Path" fill="#E9CCDB"></path>
                    <path d="M110.634225,100.577952 L110.634225,137.79428 C110.634573,138.426949 110.549234,139.05675 110.380535,139.666513 C110.211836,139.05675 110.126497,138.426949 110.126845,137.79428 L110.126845,100.577952 C110.126497,99.9452834 110.211836,99.315482 110.380535,98.7057196 C110.549234,99.315482 110.634573,99.9452834 110.634225,100.577952 Z" id="Path" fill="#000000" opacity="0.1"></path>
                    <rect id="Rectangle" fill="#E9CCDB" x="54.9923893" y="93.5583487" width="55.1344557" height="51.2453875" rx="25.6226937"></rect>
                    <path d="M155.621079,100.577952 L155.621079,137.79428 C155.622525,138.426188 155.537164,139.0553 155.367389,139.663976 C155.198856,139.055045 155.113518,138.426104 155.113699,137.79428 L155.113699,100.577952 C155.113518,99.9461287 155.198856,99.3171877 155.367389,98.7082565 C155.537164,99.3169324 155.622525,99.9460441 155.621079,100.577952 Z" id="Path" fill="#000000" opacity="0.1"></path>
                    <rect id="Rectangle" fill="#E9CCDB" x="155.621079" y="93.5583487" width="55.1369926" height="51.2453875" rx="25.6226937"></rect>
                    <path d="M107.336255,148.609087 L56.9711716,148.609087 L56.7174815,144.207565 C56.4384225,139.265683 62.8263376,135.163515 70.8048893,135.163515 L105.083487,135.163515 C107.759917,135.163515 109.824954,136.619696 109.482472,138.263607 L107.336255,148.609087 Z" id="Path" fill="#000000" opacity="0.1"></path>
                    <path d="M107.336255,149.116467 L56.9711716,149.116467 L56.7174815,144.714945 C56.4384225,139.773063 62.8263376,135.670895 70.8048893,135.670895 L105.083487,135.670895 C107.759917,135.670895 109.824954,137.127076 109.482472,138.770987 L107.336255,149.116467 Z" id="Path" fill="#CAA4BC"></path>
                    <path d="M157.805351,148.90083 L208.170434,148.90083 L208.424124,144.499308 C208.703183,139.557426 202.315268,135.455258 194.336716,135.455258 L160.058118,135.455258 C157.384225,135.455258 155.316651,136.911439 155.659133,138.555351 L157.805351,148.90083 Z" id="Path" fill="#000000" opacity="0.1"></path>
                    <path d="M157.805351,149.40821 L208.170434,149.40821 L208.424124,145.006688 C208.703183,140.064806 202.315268,135.962638 194.336716,135.962638 L160.058118,135.962638 C157.384225,135.962638 155.316651,137.418819 155.659133,139.062731 L157.805351,149.40821 Z" id="Path" fill="#CAA4BC"></path>
                    <path d="M116.058118,135.455258 L150.184502,135.455258 C152.108117,135.455258 153.952945,136.219411 155.313146,137.579612 C156.673347,138.939813 157.4375,140.784642 157.4375,142.708256 L157.4375,147.213792 L108.097325,147.213792 L108.097325,143.408441 C108.100126,139.014208 111.663885,135.453857 116.058118,135.455258 Z" id="Path" fill="#000000" opacity="0.1"></path>
                    <path d="M116.058118,135.962638 L150.184502,135.962638 C152.108117,135.962638 153.952945,136.726791 155.313146,138.086992 C156.673347,139.447193 157.4375,141.292022 157.4375,143.215637 L157.4375,147.721172 L108.097325,147.721172 L108.097325,143.915821 C108.100126,139.521588 111.663885,135.961237 116.058118,135.962638 Z" id="Path" fill="#CAA4BC"></path>
                    <path d="M60.4112085,140.491006 L101.255304,140.491006 C105.038251,140.491006 108.104935,143.55769 108.104935,147.340637 L108.104935,156.600323 L57.3745387,156.600323 L57.3745387,143.527675 C57.378722,141.852305 58.7358379,140.495189 60.4112085,140.491006 Z" id="Path" fill="#E9CCDB"></path>
                    <path d="M113.171125,140.491006 L151.985701,140.491006 C155.768648,140.491006 158.835332,143.55769 158.835332,147.340637 L158.835332,156.600323 L106.704566,156.600323 L106.704566,146.960101 C106.704566,143.388309 109.599333,140.492406 113.171125,140.491006 Z" id="Path" fill="#000000" opacity="0.1"></path>
                    <path d="M114.185886,140.491006 L153.000461,140.491006 C156.783408,140.491006 159.850092,143.55769 159.850092,147.340637 L159.850092,156.600323 L107.719327,156.600323 L107.719327,146.960101 C107.719326,143.388309 110.614093,140.492406 114.185886,140.491006 Z" id="Path" fill="#000000" opacity="0.1"></path>
                    <path d="M113.678506,140.491006 L152.493081,140.491006 C156.276028,140.491006 159.342712,143.55769 159.342712,147.340637 L159.342712,156.600323 L107.211946,156.600323 L107.211946,146.960101 C107.211946,143.388309 110.106713,140.492406 113.678506,140.491006 Z" id="Path" fill="#E9CCDB"></path>
                    <path d="M160.935886,140.491006 L202.406596,140.491006 C206.014406,140.491006 208.939114,143.415714 208.939114,147.023524 L208.939114,156.600323 L158.216328,156.600323 L158.216328,143.210563 C158.216328,141.708593 159.433916,140.491006 160.935886,140.491006 Z" id="Path" fill="#000000" opacity="0.1"></path>
                    <path d="M161.443266,140.491006 L202.913976,140.491006 C206.521786,140.491006 209.446494,143.415714 209.446494,147.023524 L209.446494,156.600323 L158.723708,156.600323 L158.723708,143.210563 C158.723708,142.489291 159.010232,141.797561 159.520248,141.287545 C160.030264,140.777529 160.721994,140.491006 161.443266,140.491006 Z" id="Path" fill="#E9CCDB"></path>
                    <path d="M58.1203875,178.037131 L58.1203875,184.950185 C58.1189883,186.876105 56.5580703,188.437023 54.6321494,188.438423 L52.2220941,188.438423 C50.2961733,188.437023 48.7352552,186.876105 48.7338561,184.950185 L48.7338561,178.037131 L58.1203875,178.037131 Z" id="Path" fill="#9C7AA5"></path>
                    <path d="M217.810655,178.037131 L217.810655,184.950185 C217.809256,186.876105 216.248338,188.437023 214.322417,188.438423 L211.912362,188.438423 C209.986441,188.437023 208.425523,186.876105 208.424124,184.950185 L208.424124,178.037131 L217.810655,178.037131 Z" id="Path" fill="#9C7AA5"></path>
                    <path d="M60.6801199,132.664668 C60.6802138,127.783744 56.8915836,123.740829 52.0209347,123.424295 C47.1502858,123.107762 42.8702515,126.626312 42.2386105,131.466192 C41.6069695,136.306073 44.840634,140.805217 49.6293819,141.749308 L49.6293819,179.178736 L60.0306734,179.178736 L60.0306734,136.081873 C60.4609583,134.994023 60.6813235,133.834523 60.6801199,132.664668 Z" id="Path" fill="#E9CCDB"></path>
                    <path d="M205.491467,132.664668 C205.491373,127.783744 209.280003,123.740829 214.150652,123.424295 C219.021301,123.107762 223.301335,126.626312 223.932976,131.466192 C224.564617,136.306073 221.330953,140.805217 216.542205,141.749308 L216.542205,179.178736 L206.140913,179.178736 L206.140913,136.081873 C205.710628,134.994023 205.490263,133.834523 205.491467,132.664668 Z" id="Path" fill="#E9CCDB"></path>
                    <path d="M60.6801199,132.664668 C60.6802138,127.783744 56.8915836,123.740829 52.0209347,123.424295 C47.1502858,123.107762 42.8702515,126.626312 42.2386105,131.466192 C41.6069695,136.306073 44.840634,140.805217 49.6293819,141.749308 L49.6293819,179.178736 L60.0306734,179.178736 L60.0306734,136.081873 C60.4609583,134.994023 60.6813235,133.834523 60.6801199,132.664668 Z" id="Path" fill="#000000" opacity="0.1"></path>
                    <path d="M205.491467,132.664668 C205.491373,127.783744 209.280003,123.740829 214.150652,123.424295 C219.021301,123.107762 223.301335,126.626312 223.932976,131.466192 C224.564617,136.306073 221.330953,140.805217 216.542205,141.749308 L216.542205,179.178736 L206.140913,179.178736 L206.140913,136.081873 C205.710628,134.994023 205.490263,133.834523 205.491467,132.664668 Z" id="Path" fill="#000000" opacity="0.1"></path>
                    <rect id="Rectangle" fill="#9C7AA5" x="54.9923893" y="172.70964" width="156.737315" height="7.23016605"></rect>
                    <rect id="Rectangle" fill="#000000" opacity="0.1" x="56.7225554" y="156.600323" width="154.035517" height="16.6166974"></rect>
                    <rect id="Rectangle" fill="#CAA4BC" x="56.7225554" y="156.092943" width="154.035517" height="16.6166974"></rect>
                    <rect id="Rectangle" fill="#000000" opacity="0.1" x="208.436808" y="178.037131" width="9.37130996" height="2.41005535"></rect>
                    <path d="M207.782288,133.425738 C207.781405,128.543626 211.571167,124.499541 216.443057,124.183766 C221.314947,123.86799 225.595048,127.389021 226.2244,132.230398 C226.853753,137.071776 223.616119,141.57007 218.825415,142.510378 L218.825415,179.939806 L208.424124,179.939806 L208.424124,136.842943 C207.995253,135.754929 207.77743,134.595217 207.782288,133.425738 Z" id="Path" fill="#E9CCDB"></path>
                    <rect id="Rectangle" fill="#000000" opacity="0.1" x="48.7338561" y="178.037131" width="9.25461255" height="2.41005535"></rect>
                    <path d="M58.6429889,133.425738 C58.6422904,128.546004 54.8547913,124.504261 49.9853839,124.186972 C45.1159765,123.869683 40.8360129,127.385753 40.2020852,132.224135 C39.5681576,137.062517 42.7978522,141.562507 47.5846402,142.510378 L47.5846402,179.939806 L57.9859317,179.939806 L57.9859317,136.842943 C58.4200075,135.755947 58.6430026,134.5962 58.6429889,133.425738 Z" id="Path" fill="#E9CCDB"></path>
                    <rect id="Rectangle" fill="#000000" opacity="0.1" x="60.0281365" y="156.092943" width="146.163515" height="1"></rect>
                    <circle id="Oval" fill="#CAA4BC" cx="48.7338561" cy="133.133994" r="4.18588561"></circle>
                    <circle id="Oval" fill="#CAA4BC" cx="217.808118" cy="133.133994" r="4.18588561"></circle>
                    <path d="M93.0078413,126.058579 C89.0198339,125.061577 80.5998616,114.548662 80.5998616,114.548662 C77.43381,112.336485 70.9773985,98.9365775 70.9773985,98.9365775 C70.9773985,98.9365775 68.5267528,97.7822878 66.3678506,102.972786 C64.2089483,108.163284 51.6538284,112.313653 47.8941421,112.894603 C45.7758303,113.221863 45.9813192,114.163054 46.5648063,114.924124 C46.9581431,115.412631 47.4800334,115.781645 48.0717251,115.989622 C49.6699723,116.595941 54.6296125,122.550046 54.6296125,122.550046 C59.2543819,125.675507 64.3839945,140.113007 66.0887915,143.885378 C67.0350554,145.983395 68.087869,144.978782 68.8387915,143.672279 C70.2887453,141.14981 72.2744636,138.976172 74.6559041,137.304659 C81.1097786,132.766144 88.0279059,130.883764 88.4997694,130.876153 C89.095941,130.860932 96.9958487,127.055581 93.0078413,126.058579 Z" id="Path" fill="#000000" opacity="0.1"></path>
                    <path d="M39.9916974,113.693727 C39.3401292,113.44641 38.7664616,113.029515 38.3300277,112.486162 C37.6628229,111.631227 37.37869,110.570803 39.5984779,110.202952 C43.515452,109.558579 56.4587177,104.923662 58.3715406,99.076107 C60.2843635,93.2285517 62.9379613,94.5375923 62.9379613,94.5375923 C62.9379613,94.5375923 70.6704336,109.662592 74.1612085,112.171587 C74.1612085,112.171587 83.7659133,124.051891 88.0355166,125.190959 C92.3051199,126.330028 84.2504613,130.59202 83.6238469,130.602168 C83.1164668,130.602168 75.9700185,132.710332 69.488238,137.804428 C67.0655883,139.720626 65.1196759,142.171902 63.8030443,144.966098 C63.1028598,146.4375 62.0627306,147.566421 60.9185886,145.199493 C58.8611624,140.940037 52.4478782,124.6506 47.3588561,121.098939 C47.3588561,121.098939 41.7167897,114.368542 39.9916974,113.693727 Z" id="Path" fill="#0079FF"></path>
                    <path d="M39.9916974,113.693727 C39.3401292,113.44641 38.7664616,113.029515 38.3300277,112.486162 C37.6628229,111.631227 37.37869,110.570803 39.5984779,110.202952 C43.515452,109.558579 56.4587177,104.923662 58.3715406,99.076107 C60.2843635,93.2285517 62.9379613,94.5375923 62.9379613,94.5375923 C62.9379613,94.5375923 70.6704336,109.662592 74.1612085,112.171587 C74.1612085,112.171587 83.7659133,124.051891 88.0355166,125.190959 C92.3051199,126.330028 84.2504613,130.59202 83.6238469,130.602168 C83.1164668,130.602168 75.9700185,132.710332 69.488238,137.804428 C67.0655883,139.720626 65.1196759,142.171902 63.8030443,144.966098 C63.1028598,146.4375 62.0627306,147.566421 60.9185886,145.199493 C58.8611624,140.940037 52.4478782,124.6506 47.3588561,121.098939 C47.3588561,121.098939 41.7167897,114.368542 39.9916974,113.693727 Z" id="Path" fill="#000000" opacity="0.1"></path>
                    <path d="M42.7442343,113.379151 C42.1395383,113.167974 41.6043054,112.795065 41.1967251,112.300969 C40.5802583,111.539899 40.3291052,110.565729 42.4169742,110.200415 C46.1183118,109.550969 58.3994465,105.126614 60.2869004,99.7458487 C62.1743542,94.365083 64.6706642,95.5295203 64.6706642,95.5295203 C64.6706642,95.5295203 71.7333948,109.228782 74.9857011,111.476476 C74.9857011,111.476476 83.8648524,122.187269 87.8706181,123.163976 C91.8763838,124.140683 84.2200185,128.154059 83.6289207,128.176891 C83.1595941,128.192113 76.3809963,130.206411 70.1833487,134.973247 C67.8867311,136.742341 66.0195806,139.007551 64.7214022,141.599631 C64.038976,142.954336 63.0394373,144.002076 61.9967712,141.853321 C60.1220018,137.989622 54.3226476,123.191882 49.5786439,120.035978 C49.5786439,120.035978 44.3602399,113.980397 42.7442343,113.379151 Z" id="Path" fill="#0079FF"></path>
                    <path d="M56.9711716,118.222094 C56.9711716,118.222094 55.6418358,119.472786 61.9993081,117.075415 C68.3567804,114.678044 56.9711716,118.222094 56.9711716,118.222094 Z" id="Path" fill="#000000" opacity="0.1"></path>
                    <path d="M62.1895756,124.323339 C62.1895756,124.323339 63.1586716,124.462869 66.8041974,122.973708 C70.4497232,121.484548 62.1895756,124.323339 62.1895756,124.323339 Z" id="Path" fill="#000000" opacity="0.1"></path>
                    <path d="M61.8699262,135.526292 C61.8699262,135.526292 62.7755996,135.526292 66.4135148,134.019373 C70.0514299,132.512454 61.8699262,135.526292 61.8699262,135.526292 Z" id="Path" fill="#000000" opacity="0.1"></path>
                    <path d="M210.250692,110.446494 L210.250692,115.2869 C209.205489,117.448339 208.183118,120.208487 208.183118,120.208487 C205.138838,124.171125 205.620849,137.373155 205.420434,140.9375 C205.30881,142.916282 204.012454,142.444419 202.883533,141.632611 C200.652422,140.042488 198.119289,138.926149 195.440268,138.352399 C188.083256,136.741467 181.233625,137.411208 180.797279,137.553275 C180.259456,137.730858 171.857242,137.165129 175.074031,135.107703 C178.290821,133.050277 182.136762,121.966559 182.136762,121.966559 C184.194188,119.196264 185.267297,106.410286 185.267297,106.410286 C185.267297,106.410286 187.043127,104.7131 190.810424,108.186116 C194.384917,111.517066 206.064806,111.111162 210.250692,110.446494 Z" id="Path" fill="#000000" opacity="0.1"></path>
                    <path d="M213.01845,112.120849 C213.465123,111.781493 213.803567,111.319659 213.99262,110.791513 C214.24631,110 214.104244,109.180581 212.092482,109.583948 C208.528137,110.299354 195.833487,110.925969 192.078875,107.440268 C188.324262,103.954566 186.535747,105.651753 186.535747,105.651753 C186.535747,105.651753 185.462638,118.435194 183.405212,121.208026 C183.405212,121.208026 179.561808,132.291744 176.342482,134.34917 C173.123155,136.406596 181.527906,136.972325 182.065729,136.792205 C182.491928,136.650138 189.341559,135.982934 196.708718,137.593865 C199.387234,138.167805 201.920166,139.283193 204.151983,140.871541 C205.280904,141.683349 206.57726,142.157749 206.688884,140.17643 C206.889299,136.624769 206.412362,123.412592 209.451568,119.449954 C209.451568,119.449954 211.800738,113.11024 213.01845,112.120849 Z" id="Path" fill="#0079FF"></path>
                    <path d="M213.01845,112.120849 C213.465123,111.781493 213.803567,111.319659 213.99262,110.791513 C214.24631,110 214.104244,109.180581 212.092482,109.583948 C208.528137,110.299354 195.833487,110.925969 192.078875,107.440268 C188.324262,103.954566 186.535747,105.651753 186.535747,105.651753 C186.535747,105.651753 185.462638,118.435194 183.405212,121.208026 C183.405212,121.208026 179.561808,132.291744 176.342482,134.34917 C173.123155,136.406596 181.527906,136.972325 182.065729,136.792205 C182.491928,136.650138 189.341559,135.982934 196.708718,137.593865 C199.387234,138.167805 201.920166,139.283193 204.151983,140.871541 C205.280904,141.683349 206.57726,142.157749 206.688884,140.17643 C206.889299,136.624769 206.412362,123.412592 209.451568,119.449954 C209.451568,119.449954 211.800738,113.11024 213.01845,112.120849 Z" id="Path" fill="#000000" opacity="0.1"></path>
                    <path d="M212.100092,112.691651 C212.524548,112.367477 212.84542,111.926719 213.023524,111.423201 C213.277214,110.662131 213.130074,109.901061 211.222325,110.279059 C207.835563,110.956411 195.782749,111.547509 192.218404,108.249539 C188.654059,104.951568 186.954336,106.552352 186.954336,106.552352 C186.954336,106.552352 185.939576,118.688884 183.983625,121.319649 C183.983625,121.319649 180.335563,131.845249 177.278598,133.798662 C174.221633,135.752076 182.202721,136.287362 182.710101,136.117389 C183.116006,135.982934 189.620618,135.356319 196.614852,136.878459 C199.158054,137.421896 201.56272,138.481331 203.68012,139.991236 C204.753229,140.752306 205.983625,141.211485 206.090175,139.331642 C206.280443,135.947417 205.836485,123.415129 208.71333,119.650369 C208.71333,119.647832 210.943266,113.630304 212.100092,112.691651 Z" id="Path" fill="#0079FF"></path>
                    <path d="M203.167666,119.688423 C203.167666,119.688423 202.279751,120.195803 198.030443,121.65452 C193.781135,123.113238 202.470018,121.083718 203.167666,119.688423 Z" id="Path" fill="#000000" opacity="0.1"></path>
                    <path d="M202.723708,124.166052 C202.723708,124.166052 200.059963,126.347786 198.72809,126.538054 C197.396218,126.728321 201.962638,126.297048 202.723708,124.166052 Z" id="Path" fill="#000000" opacity="0.1"></path>
                    <path d="M204.84202,134.24262 C204.84202,134.24262 202.178275,136.424354 200.846402,136.614622 C199.51453,136.804889 204.08095,136.37869 204.84202,134.24262 Z" id="Path" fill="#000000" opacity="0.1"></path>
                    <path d="M164.444419,136.074262 C164.068002,136.057697 163.694125,136.004164 163.328183,135.914437 C163.302814,135.795203 163.099862,135.714022 162.671125,135.696264 L162.584871,135.696264 C161.265503,135.193718 160.082156,134.389181 159.129613,133.347094 C157.906827,132.002537 154.446494,130.320572 154.446494,130.320572 C154.446494,130.320572 152.000923,128.258072 150.387454,128.090637 C148.773985,127.923201 144.314114,123.42274 140.518911,119.257149 C136.723708,115.091559 130.858395,110.550507 130.858395,110.550507 L128.369696,107.775138 C128.369696,107.775138 125.467482,105.707565 124.795203,104.560886 C124.427352,103.939345 123.273063,103.619696 122.090867,103.508072 C120.822417,103.000692 118.729474,103.000692 117.752768,103.213792 C117.156596,103.348247 115.507611,104.908441 113.883994,106.570111 L115.218404,89.4460332 C115.256099,88.9568981 114.950961,88.5065562 114.482703,88.3602399 L109.992389,90.5495849 C109.663449,90.708663 109.445429,91.0323012 109.421587,91.3969096 L108.216559,109.77929 L102.914437,113.655673 C102.793852,113.006021 102.515028,112.396095 102.102629,111.879843 C99.1293819,108.003459 94.5071494,115.357934 92.7845941,118.435194 C92.7034133,118.435194 92.6247694,118.460563 92.5511993,118.478321 C92.5189833,118.568823 92.4659788,118.650502 92.3964483,118.71679 C91.0855582,118.078196 89.8414281,117.310813 88.6824262,116.425969 C88.601208,116.336626 88.5336702,116.235747 88.4820111,116.126614 C88.228321,115.494926 87.2313192,114.409133 86.6554428,113.807887 C84.9049815,111.836716 82.2945111,109.195803 81.9215867,109.028367 C81.7237085,108.942113 80.7875923,108.22417 79.6256919,107.313423 C79.4480522,106.928461 79.2498892,106.553307 79.0320572,106.189576 C78.2050277,104.819649 76.7945111,104.413745 75.8076568,104.304659 C74.8943727,103.594327 74.1967251,103.064114 74.0115314,102.972786 C73.3798432,102.65821 71.9236624,100.385148 71.220941,98.9340406 C70.5182196,97.4829336 65.4114391,97.295203 65.4114391,97.295203 C65.3724414,95.301632 65.8347698,93.3301938 66.7559963,91.5618081 C66.8092712,91.4603321 66.8600092,91.361393 66.9132841,91.2649908 C69.3430306,90.5577726 71.376501,88.8851722 72.5391718,86.6375018 C73.7018426,84.3898314 73.8919993,81.7637251 73.0652675,79.3720018 C73.7197878,79.1411439 74.5189114,79.2426199 75.2064114,79.0016144 C76.1298432,78.679428 76.9670203,77.9335793 77.1090867,76.9720941 C77.1706143,76.3289883 77.0210021,75.6833404 76.6828875,75.1328413 C76.3733234,74.5842516 75.9805038,74.0870225 75.5184502,73.6589022 C74.2652214,72.3447878 72.4614852,71.5355166 70.6983395,70.9291974 C68.4633303,70.1681273 66.1166974,69.5821033 63.7548432,69.7114852 C61.3929889,69.8408672 59.0006919,70.7490775 57.4785517,72.5502768 C57.2086414,72.9222737 56.8904271,73.2566974 56.5322878,73.5447417 C55.9893911,73.9151292 55.2942804,73.9760148 54.6372232,73.9506458 C52.4707103,73.8720018 50.2077952,73.0170664 48.2087177,73.8542435 C45.8062731,74.8690037 44.966559,77.7965867 44.6570572,80.3766144 C44.3348708,83.0327491 44.2562269,85.734548 43.5535055,88.3145756 C42.8507841,90.8946033 41.402214,93.4162823 39.0479705,94.697417 C38.3604705,95.0703413 37.609548,95.3316421 36.9626384,95.7730627 C36.3157288,96.2144834 35.7652214,96.8994465 35.7626845,97.6808118 C35.7626845,98.74631 36.7190959,99.5302122 37.2188653,100.471402 C37.4725554,100.950876 37.6196956,101.498847 37.8708487,101.97071 C37.8962177,102.018911 37.9215867,102.064576 37.9494926,102.11024 L37.964714,102.135609 C37.9875461,102.171125 38.0103782,102.206642 38.0357472,102.242159 C38.0427326,102.254982 38.0512515,102.266909 38.0611162,102.277675 L38.1321494,102.374077 C38.1420619,102.385424 38.1513764,102.397279 38.1600554,102.409594 C38.195572,102.450185 38.2310886,102.490775 38.2691421,102.528828 C38.3071956,102.566882 38.3604705,102.615083 38.4086716,102.653137 C38.4568727,102.69119 38.4822417,102.739391 38.5228321,102.779982 C39.6111624,103.878459 41.5442804,103.256919 42.9395756,103.924124 C43.2056415,104.056966 43.4509179,104.22789 43.6676661,104.431504 C44.1344557,104.938884 44.509917,105.565498 44.9361162,106.12869 L44.9614852,106.159133 L45.0934041,106.326568 L45.1619004,106.405212 C45.1923432,106.443266 45.2253229,106.481319 45.2583026,106.516836 C45.2912823,106.552352 45.375,106.643681 45.4333487,106.70203 L45.5475092,106.806042 C45.5931734,106.85678 45.6388376,106.907518 45.6870387,106.95572 C46.8337177,108.097325 48.5283672,108.495618 50.1469096,108.607242 C51.0322878,108.66559 51.9481089,108.650369 52.7675277,108.305351 C53.1413144,108.145701 53.484638,107.92254 53.7822878,107.645756 C54.2590421,108.018959 54.768486,108.348399 55.304428,108.630074 C56.6388376,109.502768 58.1178506,110.317113 59.5131458,111.243081 C60.9667897,112.625692 62.7273985,114.586716 62.7502306,116.014991 C62.7832103,117.910055 65.388607,121.631688 66.5555812,123.199493 C66.6139299,123.511531 66.6392989,123.689114 66.6392989,123.689114 L71.9946956,131.576338 C71.9946956,131.576338 72.3955258,132.806734 74.4859317,132.875231 C74.1003229,135.249769 74.2322417,139.425507 76.0867159,139.861854 C78.2380074,140.369234 81.7389299,139.945572 82.24631,140.57726 C82.75369,141.208948 91.1026292,140.239852 91.1026292,140.239852 C91.1026292,140.239852 95.7426199,139.189576 98.822417,140.115544 C100.73853,140.648973 102.780451,140.500111 104.598939,139.694419 C104.598939,139.694419 107.927352,139.379843 108.358625,138.078413 C108.442589,137.957722 108.498893,137.819993 108.523524,137.675046 C108.543739,137.533174 108.581225,137.394305 108.635148,137.261531 C108.970018,136.716098 109.490083,136.556273 109.294742,136.434502 C109.548432,136.216328 109.601707,136.16559 108.817804,136.033672 C108.298829,135.956373 107.770104,135.974427 107.257611,136.086946 C107.445341,135.897525 107.630535,135.697109 107.813192,135.485701 C107.9298,135.492168 108.046676,135.492168 108.163284,135.485701 C109.327721,135.551661 109.246541,135.046817 110.334871,134.775369 C111.603321,134.460793 112.871771,134.333948 114.510609,134.143681 C116.149446,133.953413 117.864391,133.009686 118.569649,132.114161 C119.274908,131.218635 122.238007,131.733625 123.059963,130.219096 C123.765221,128.925277 121.271448,127.814114 119.942113,127.91559 C119.622711,127.87171 119.297552,127.927527 119.01107,128.075415 C118.229705,128.582795 115.42643,128.81619 114.464945,128.877076 C114.254382,128.800969 113.407057,128.509225 112.410055,128.255535 C113.272601,126.842482 114.480166,124.916974 115.57357,123.364391 C117.557426,120.545895 118.737085,119.536208 118.737085,119.536208 C119.145649,118.877334 119.659907,118.290223 120.259225,117.798432 C121.743312,121.558118 130.500692,127.852168 134.719557,128.580258 C139.359548,129.379382 143.915821,133.164437 143.915821,133.164437 C143.915821,133.164437 143.494696,134.940268 143.494696,135.701338 C143.494696,136.041282 144.336946,136.208718 145.394834,136.292435 C146.105166,136.825185 149.552814,136.766836 150.874539,136.546125 C152.351015,136.292435 156.526753,137.345249 159.943958,137.560886 C163.361162,137.776522 166.509456,136.15798 164.444419,136.074262 Z" id="Path" fill="url(#linearGradient-1)"></path>
                    <path d="M80.1609779,107.326107 L79.8438653,111.354705 L81.7998155,115.596402 L84.5650369,118.031827 L87.5738007,119.807657 L90.3643911,121.750923 L93.1549815,119.244465 C93.1549815,119.244465 89.0680351,116.62131 88.7027214,115.730858 C88.3374077,114.840406 86.5006919,113.03667 86.5006919,113.03667 L83.9079797,110.530212 L81.8023524,108.609779 L80.1609779,107.326107 Z" id="Path" fill="#FD6F8D"></path>
                    <path d="M80.1609779,107.326107 L79.8438653,111.354705 L81.7998155,115.596402 L84.5650369,118.031827 L87.5738007,119.807657 L90.3643911,121.750923 L93.1549815,119.244465 C93.1549815,119.244465 89.0680351,116.62131 88.7027214,115.730858 C88.3374077,114.840406 86.5006919,113.03667 86.5006919,113.03667 L83.9079797,110.530212 L81.8023524,108.609779 L80.1609779,107.326107 Z" id="Path" fill="#000000" opacity="0.1"></path>
                    <path d="M67.4967712,91.6861162 C66.4820111,93.6750461 65.6245387,96.5975554 66.6037823,99.8929889 C68.4151292,105.98155 55.1369926,97.4626384 55.1369926,97.4626384 C55.1369926,97.4626384 57.9986162,93.1904982 58.8357934,89.501845 C59.1072417,88.3069649 59.1655904,87.1704336 58.8357934,86.2622232 C57.5191421,82.5558118 69.2954336,88.9792435 69.2954336,88.9792435 C68.5819987,89.8004538 67.9774579,90.7102495 67.4967712,91.6861162 Z" id="Path" fill="#FFBEC5"></path>
                    <path d="M65.8097325,97.2977399 C65.8097325,97.2977399 70.8048893,97.4829336 71.4847786,98.9035978 C72.1646679,100.324262 73.5827952,102.549124 74.2017989,102.858625 C74.8208026,103.168127 81.3660055,108.541282 81.9215867,108.787362 C82.4771679,109.033441 88.0989391,114.901292 88.0989391,115.520295 C88.0989391,116.139299 93.9059041,119.721402 97.6123155,120.276983 C101.318727,120.832565 106.998847,127.504613 108.668127,127.255996 C110.337408,127.00738 113.741928,128.245387 113.741928,128.245387 C113.741928,128.245387 117.572648,128.060194 118.498616,127.44119 C119.424585,126.822186 122.88238,128.060194 122.08072,129.541744 C121.279059,131.023293 118.374308,130.531135 117.694419,131.396218 C117.01453,132.261301 115.347786,133.187269 113.741928,133.372463 C112.13607,133.557657 110.9006,133.679428 109.665129,133.98893 C108.429659,134.298432 108.739161,134.914899 106.874539,134.607934 C105.009917,134.300969 97.7949723,121.449031 97.7949723,121.449031 L89.7656827,117.806042 C89.7656827,117.806042 86.7391605,115.335101 86.4905443,114.530904 C86.241928,113.726707 80.4375,108.23178 80.4375,108.23178 L72.8394834,102.670895 L65.8097325,97.2977399 Z" id="Path" fill="#000000" opacity="0.1"></path>
                    <path d="M66.1801199,97.2977399 C66.1801199,97.2977399 71.1752768,97.4829336 71.8551661,98.9035978 C72.5350554,100.324262 73.9557196,102.549124 74.5721863,102.858625 C75.1886531,103.168127 81.736393,108.541282 82.2945111,108.787362 C82.8526292,109.033441 88.4693266,114.901292 88.4693266,115.520295 C88.4693266,116.139299 94.2762915,119.721402 97.982703,120.276983 C101.689114,120.832565 107.369234,127.504613 109.038515,127.255996 C110.707795,127.00738 114.112315,128.245387 114.112315,128.245387 C114.112315,128.245387 117.943035,128.060194 118.869004,127.44119 C119.794972,126.822186 123.255304,128.060194 122.451107,129.541744 C121.64691,131.023293 118.744696,130.531135 118.064806,131.396218 C117.384917,132.261301 115.718173,133.187269 114.112315,133.372463 C112.506458,133.557657 111.260839,133.679428 110.027906,133.98893 C108.794972,134.298432 109.101937,134.914899 107.237315,134.607934 C105.372694,134.300969 98.1577491,121.449031 98.1577491,121.449031 L90.1284594,117.806042 C90.1284594,117.806042 87.1019373,115.335101 86.853321,114.530904 C86.6047048,113.726707 80.8180351,108.23178 80.8180351,108.23178 L73.2073339,102.670895 L66.1801199,97.2977399 Z" id="Path" fill="#FD6F8D"></path>
                    <path d="M92.1960332,124.889068 C92.1960332,124.889068 99.6925738,118.257611 100.060424,117.765452 C100.243081,117.511762 102.615083,115.723247 104.964253,113.960101 C107.883614,111.782259 110.619908,109.369229 113.145756,106.745157 C114.837869,104.989622 116.649216,103.236624 117.273293,103.097094 C118.541744,102.807887 121.76107,102.932196 122.420664,104.043358 C123.080258,105.15452 125.921587,107.173893 125.921587,107.173893 L128.351937,109.888376 C128.351937,109.888376 134.077721,114.335563 137.784133,118.412362 C141.490544,122.489161 145.854013,126.895756 147.424354,127.060655 C148.994696,127.225554 151.376845,129.242389 151.376845,129.242389 C151.376845,129.242389 154.753459,130.891375 155.943266,132.208026 C157.133072,133.524677 159.114391,134.803275 161.131227,134.884456 C163.148063,134.965637 160.060655,136.533441 156.724631,136.325415 C153.388607,136.117389 149.314345,135.089945 147.870849,135.338561 C146.427352,135.587177 142.396218,135.625231 142.396218,134.884456 C142.396218,134.143681 142.807196,132.413515 142.807196,132.413515 C142.807196,132.413515 138.360009,128.717251 133.839253,127.935886 C129.318496,127.15452 119.416974,119.782288 119.498155,116.365083 C119.498155,116.365083 118.100323,116.240775 116.491928,118.711716 C116.491928,118.711716 115.340175,119.701107 113.40452,122.458718 C111.468865,125.216328 109.162823,129.168819 109.162823,129.168819 C109.162823,129.168819 105.58072,136.41167 102.698801,136.353321 C99.8168819,136.294972 96.7269373,135.962638 96.7269373,135.962638 L92.8962177,133.245618 L92.6425277,129.947648 L92.1960332,124.889068 Z" id="Path" fill="#FFBEC5"></path>
                    <path d="M92.1960332,124.889068 C92.1960332,124.889068 99.6925738,118.257611 100.060424,117.765452 C100.243081,117.511762 102.615083,115.723247 104.964253,113.960101 C107.883614,111.782259 110.619908,109.369229 113.145756,106.745157 C114.837869,104.989622 116.649216,103.236624 117.273293,103.097094 C118.541744,102.807887 121.76107,102.932196 122.420664,104.043358 C123.080258,105.15452 125.921587,107.173893 125.921587,107.173893 L128.351937,109.888376 C128.351937,109.888376 134.077721,114.335563 137.784133,118.412362 C141.490544,122.489161 145.854013,126.895756 147.424354,127.060655 C148.994696,127.225554 151.376845,129.242389 151.376845,129.242389 C151.376845,129.242389 154.753459,130.891375 155.943266,132.208026 C157.133072,133.524677 159.114391,134.803275 161.131227,134.884456 C163.148063,134.965637 160.060655,136.533441 156.724631,136.325415 C153.388607,136.117389 149.314345,135.089945 147.870849,135.338561 C146.427352,135.587177 142.396218,135.625231 142.396218,134.884456 C142.396218,134.143681 142.807196,132.413515 142.807196,132.413515 C142.807196,132.413515 138.360009,128.717251 133.839253,127.935886 C129.318496,127.15452 119.416974,119.782288 119.498155,116.365083 C119.498155,116.365083 118.100323,116.240775 116.491928,118.711716 C116.491928,118.711716 115.340175,119.701107 113.40452,122.458718 C111.468865,125.216328 109.162823,129.168819 109.162823,129.168819 C109.162823,129.168819 105.58072,136.41167 102.698801,136.353321 C99.8168819,136.294972 96.7269373,135.962638 96.7269373,135.962638 L92.8962177,133.245618 L92.6425277,129.947648 L92.1960332,124.889068 Z" id="Path" fill="#000000" opacity="0.05"></path>
                    <path d="M93.9261993,125.259456 C93.9261993,125.259456 101.420203,118.630535 101.79059,118.135839 C102.160978,117.641144 111.466328,110.804197 111.466328,110.804197 C111.466328,110.804197 117.724862,103.764299 119.003459,103.475092 C120.282057,103.185886 123.491236,103.310194 124.15083,104.421356 C124.810424,105.532518 127.649216,107.551891 127.649216,107.551891 L130.079566,110.268911 C130.079566,110.268911 135.802814,114.716098 139.509225,118.792897 C143.215637,122.869696 147.581642,127.276292 149.149446,127.44119 C150.717251,127.606089 153.101937,129.625461 153.101937,129.625461 C153.101937,129.625461 156.478552,131.27191 157.668358,132.588561 C158.858164,133.905212 160.839483,135.18381 162.856319,135.264991 C164.873155,135.346172 161.785747,136.913976 158.449723,136.70595 C155.113699,136.497924 151.0369,135.473017 149.595941,135.719096 C148.154982,135.965175 144.123847,136.01845 144.123847,135.25738 C144.123847,134.49631 144.537362,132.786439 144.537362,132.786439 C144.537362,132.786439 140.090175,129.082565 135.559271,128.298662 C131.028367,127.51476 121.154751,120.152675 121.228321,116.738007 C121.228321,116.738007 119.827952,116.613699 118.222094,119.08464 C118.222094,119.08464 117.070341,120.074031 115.134686,122.831642 C113.199031,125.589253 110.892989,129.54428 110.892989,129.54428 C110.892989,129.54428 107.310886,136.77952 104.42643,136.726245 C101.541974,136.67297 98.4571033,136.335563 98.4571033,136.335563 L94.6263838,133.618542 L94.3726937,130.320572 L93.9261993,125.259456 Z" id="Path" fill="#FFBEC5"></path>
                    <path d="M118.047048,129.118081 C117.844096,129.204336 117.646218,129.308349 117.450876,129.412362 L116.182426,130.089714 C117.287516,130.272235 118.412113,130.305512 119.526061,130.188653 C120.145065,130.122694 121.015221,129.597555 120.309963,128.976015 C119.749308,128.48893 118.617851,128.869465 118.047048,129.118081 Z" id="Path" fill="#000000" opacity="0.1"></path>
                    <path d="M112.250231,129.995849 C112.937731,129.858856 113.678506,129.7244 114.320341,129.995849 C114.540131,130.101849 114.748411,130.230218 114.941882,130.378921 L116.042897,131.17297 C115.094498,131.452845 114.11911,131.631426 113.133072,131.70572 C113.002113,131.723601 112.869037,131.718449 112.739852,131.690498 C112.570631,131.630929 112.417109,131.533785 112.290821,131.406365 C111.430812,130.690959 110.849862,130.274908 112.250231,129.995849 Z" id="Path" fill="#000000" opacity="0.1"></path>
                    <path d="M69.3005074,88.9792435 C68.5852912,89.8001615 67.9790362,90.7099703 67.4967712,91.6861162 C64.4264901,92.5266124 61.1402809,91.6978408 58.8357934,89.501845 C59.1072417,88.3069649 59.1655904,87.1704336 58.8357934,86.2622232 C57.5242159,82.5558118 69.3005074,88.9792435 69.3005074,88.9792435 Z" id="Path" fill="#000000" opacity="0.1"></path>
                    <circle id="Oval" fill="#FFBEC5" cx="65.0917897" cy="82.702952" r="9.05927122"></circle>
                    <polygon id="Path" fill="#504F88" points="66.1826568 97.2977399 65.6981089 98.0791052 71.5811808 104.464483 74.3464022 106.397601 75.9446494 104.253921"></polygon>
                    <path d="M75.2368542,104.149908 C75.2368542,104.149908 78.1365314,103.784594 79.4760148,106.006919 C80.2659047,107.290281 80.7647082,108.731268 80.9372694,110.228321 C80.9372694,110.228321 82.2742159,111.298893 82.1524446,111.897601 C82.052209,112.281473 81.8183295,112.617 81.4928506,112.843865 C81.4928506,112.843865 78.8976015,111.362315 78.8773063,111.298893 C78.8570111,111.23547 76.8807657,109.053736 76.8807657,109.053736 L75.2368542,107.326107 L75.2368542,104.149908 Z" id="Path" fill="#504F88"></path>
                    <path d="M57.7702952,95.3214945 C57.7702952,95.3214945 53.241928,95.6817343 52.7878229,98.8427122 C52.3337177,102.00369 52.1713561,103.804889 53.777214,105.986624 C55.383072,108.168358 58.6759686,109.076568 58.6759686,109.076568 C58.6759686,109.076568 63.658441,112.988469 63.7015683,115.375692 C63.7446956,117.762915 67.9432657,123.118312 67.9432657,123.118312 C67.9432657,123.118312 75.9370387,129.047048 75.3586255,130.942113 C74.7802122,132.837177 74.6127768,138.230627 76.7133303,138.725323 C78.8138838,139.220018 82.2310886,138.806504 82.7257841,139.425507 C83.2204797,140.044511 91.3740775,139.09571 91.3740775,139.09571 C91.3740775,139.09571 95.9024446,138.065729 98.9086716,138.971402 C100.780532,139.492912 102.775622,139.345792 104.550738,138.555351 C104.550738,138.555351 108.051661,138.225554 108.257149,136.825185 C108.462638,135.424815 110.03298,135.467943 108.546356,135.219327 C107.059732,134.97071 106.116006,135.754613 105.045434,135.384225 C103.974862,135.013838 103.069188,133.778367 100.598247,133.818958 C98.1273063,133.859548 97.5539668,133.902675 97.3002768,133.859548 C97.0465867,133.816421 98.8655443,132.418589 97.8761531,130.155673 C96.886762,127.892758 94.9967712,126.124539 95.0804889,124.856089 C95.1642066,123.587638 91.3740775,119.254613 91.3740775,119.254613 C91.3740775,119.254613 89.5627306,116.62131 87.2135609,115.756227 C84.8643911,114.891144 80.4603321,109.576338 80.4603321,109.576338 C80.4603321,109.576338 76.6879613,103.703413 74.6406827,103.388838 C72.5934041,103.074262 65.8833026,97.0465867 65.8833026,97.0465867 C65.8833026,97.0465867 60.1930351,94.6999539 57.7702952,95.3214945 Z" id="Path" fill="#000000" opacity="0.1"></path>
                    <path d="M57.648524,95.5675738 C57.648524,95.5675738 53.1176199,95.9354244 52.658441,99.0887915 C52.199262,102.242159 52.0419742,104.050969 53.6478321,106.23524 C55.25369,108.419511 58.5491236,109.322648 58.5491236,109.322648 C58.5491236,109.322648 63.5315959,113.234548 63.5721863,115.624308 C63.6127768,118.014068 67.8138838,123.364391 67.8138838,123.364391 C67.8138838,123.364391 75.8127306,129.295664 75.2368542,131.198339 C74.6609779,133.101015 74.4935424,138.486854 76.591559,138.98155 C78.6895756,139.476245 82.1118542,139.065268 82.6040129,139.681734 C83.0961716,140.298201 91.2523063,139.351937 91.2523063,139.351937 C91.2523063,139.351937 95.7832103,138.324493 98.7894373,139.230166 C100.660158,139.750363 102.653769,139.601426 104.42643,138.809041 C104.42643,138.809041 107.927352,138.479244 108.132841,137.081411 C108.33833,135.683579 109.908672,135.721633 108.422048,135.475554 C106.935424,135.229474 105.991697,136.010839 104.921125,135.637915 C103.850554,135.264991 102.94488,134.032057 100.473939,134.075185 C98.0029982,134.118312 97.4296587,134.156365 97.1759686,134.115775 C96.9222786,134.075185 98.7386993,132.674815 97.751845,130.409363 C96.7649908,128.143911 94.8699262,126.373155 94.9612546,125.097094 C95.052583,123.821033 91.2548432,119.495618 91.2548432,119.495618 C91.2548432,119.495618 89.4434963,116.862315 87.0968635,115.997232 C84.7502306,115.132149 80.3436347,109.81988 80.3436347,109.81988 C80.3436347,109.81988 76.5687269,103.946956 74.5239852,103.629843 C72.4792435,103.312731 65.7640683,97.3002768 65.7640683,97.3002768 C65.7640683,97.3002768 60.0687269,94.9460332 57.648524,95.5675738 Z" id="Path" fill="#FD6F8D"></path>
                    <path d="M87.0029982,131.198339 C86.7239391,131.81988 86.6630535,132.629151 87.1425277,133.111162 C87.4462579,133.359534 87.7989491,133.541067 88.177583,133.643911 C88.9513376,133.945803 89.6997232,134.476015 89.9534133,135.267528 C89.9998297,135.48672 90.085797,135.695621 90.2071033,135.883994 C90.3358961,136.023385 90.4958528,136.130313 90.673893,136.196033 C92.8804774,137.192489 95.2803085,137.68805 97.701107,137.64714 C96.8995129,136.876617 95.8832077,136.367137 94.7862085,136.185886 C93.9135148,136.043819 92.990083,136.109779 92.1833487,135.747002 C91.3766144,135.384225 90.8387915,134.691651 90.3111162,134.011762 C90.1161891,133.787643 89.9639968,133.52969 89.8620849,133.250692 C89.6718173,132.639299 89.9762454,131.961946 89.8011993,131.348017 C89.6997232,130.995387 88.8523985,129.734548 88.4921587,129.655904 C87.9416513,129.546817 87.1881919,130.784825 87.0029982,131.198339 Z" id="Path" fill="#000000" opacity="0.1"></path>
                    <path d="M118.97048,115.913515 C119.47786,115.748616 122.057887,115.266605 121.279059,114.287362 C120.568727,113.389299 119.520987,115.723247 118.97048,115.913515 Z" id="Path" fill="#000000" opacity="0.1"></path>
                    <path d="M109.703183,90.6941882 L114.08441,88.560655 L112.562269,110.550507 L107.947648,109.634686 L109.145065,91.513607 C109.172486,91.16077 109.384896,90.8489127 109.703183,90.6941882 Z" id="Path" fill="#CBE3FF"></path>
                    <path d="M114.08441,88.560655 L112.562269,110.550507 C112.910843,110.550191 113.20043,110.281605 113.226937,109.934041 L114.8125,89.6261531 C114.848987,89.1443825 114.546506,88.7017275 114.08441,88.560655 Z" id="Path" fill="#C8BFCA"></path>
                    <path d="M107.962869,109.510378 L94.060655,119.729013 C93.8258743,119.897306 93.673946,120.157684 93.6429497,120.444884 C93.6119534,120.732084 93.7048274,121.018882 93.8982934,121.233395 L95.258072,122.780904 L112.848939,109.634686 L108.566651,109.327721 C108.349978,109.314057 108.135634,109.378901 107.962869,109.510378 Z" id="Path" fill="#F1F1F2"></path>
                    <polygon id="Path" fill="#7E7A98" points="107.605166 110.54797 98.2414668 117.103321 99.5454336 118.516375 110.469327 110.743312"></polygon>
                    <path d="M95.2631458,122.780904 L112.848939,109.634686 C113.136267,110.233536 112.959843,110.951984 112.427814,111.349631 L96.9806273,122.935655 C96.4539056,123.334754 95.7100426,123.26773 95.2631458,122.780904 Z" id="Path" fill="#C8BFCA"></path>
                    <path d="M92.2340867,119.247002 C92.2340867,119.247002 98.3733856,106.844096 101.998616,111.5881 C105.623847,116.332103 96.4377306,121.482011 96.4377306,121.482011 L92.2340867,119.247002 Z" id="Path" fill="#FFBEC5"></path>
                    <path d="M59.508072,98.8655443 C57.0343531,99.5094478 55.0738463,101.394033 54.3327952,103.840406 C53.9345018,105.202721 53.9624077,106.696956 55.3120387,107.696494 C58.4019834,109.979705 62.765452,111.5881 64.7848247,115.335101 C66.0487523,117.785531 66.9218389,120.418486 67.3724631,123.138607 L72.6035517,130.858395 C72.6035517,130.858395 73.3976015,133.329336 78.6921125,131.396218 C83.9866236,129.4631 86.8812269,128.471172 86.8812269,128.471172 C86.8812269,128.471172 90.9859317,126.269142 92.8201107,125.464945 C93.0786268,125.33333 93.3532512,125.236102 93.6369926,125.175738 C94.2534594,125.175738 98.6676661,121.398293 98.8706181,120.878229 C99.0735701,120.358164 94.4082103,118.196725 92.5435886,118.666052 C92.5435886,118.666052 92.277214,119.782288 88.7762915,119.617389 C85.275369,119.452491 83.9561808,120.936577 83.9561808,120.936577 C83.9561808,120.936577 82.2260148,120.317574 81.1148524,120.378459 C80.00369,120.439345 77.9868542,119.363699 76.4824723,119.493081 C76.4824723,119.493081 77.2435424,117.970941 76.2566882,116.702491 C75.2698339,115.434041 74.3616236,115.548201 73.9506458,114.046356 C73.714714,113.188884 72.9358856,110.461716 72.3041974,108.269834 C71.4809274,105.35127 69.8401542,102.729025 67.5754151,100.712408 C66.0989391,99.4109779 64.3434041,98.3530904 62.5827952,98.4165129 C61.5442744,98.4502206 60.5128593,98.600848 59.508072,98.8655443 Z" id="Path" fill="#000000" opacity="0.1"></path>
                    <path d="M59.6171587,98.2465406 C57.141652,98.8917268 55.1790218,100.776544 54.4342712,103.223939 C54.0385148,104.586255 54.0638838,106.077952 55.4160517,107.077491 C58.5034594,109.360701 62.8694649,110.969096 64.8863007,114.716098 C66.1530976,117.165984 67.0287707,119.798995 67.4815498,122.519603 L72.7126384,130.241928 C72.7126384,130.241928 73.5041513,132.712869 78.8011993,130.777214 C84.0982472,128.841559 86.9903137,127.854705 86.9903137,127.854705 C86.9903137,127.854705 91.0950185,125.650138 92.9266605,124.848478 C93.1848107,124.716013 93.4595505,124.618745 93.7435424,124.559271 C94.3625461,124.559271 98.7767528,120.781827 98.9771679,120.261762 C99.177583,119.741697 94.517297,117.580258 92.6526753,118.049585 C92.6526753,118.049585 92.3863007,119.165821 88.8853782,119.000923 C85.3844557,118.836024 84.0652675,120.317574 84.0652675,120.317574 C84.0652675,120.317574 82.3351015,119.701107 81.2239391,119.761993 C80.1127768,119.822878 78.0934041,118.747232 76.591559,118.876614 C76.591559,118.876614 77.3526292,117.354474 76.363238,116.086024 C75.3738469,114.817574 74.4707103,114.934271 74.0571956,113.429889 C73.8238007,112.574954 73.0424354,109.847786 72.4132841,107.653367 C71.589362,104.735092 69.948696,102.113019 67.6845018,100.095941 C66.2054889,98.7945111 64.4524908,97.7366236 62.6918819,97.8127306 C61.6538762,97.8407056 60.6223854,97.9862378 59.6171587,98.2465406 Z" id="Path" fill="#000000" opacity="0.1"></path>
                    <path d="M59.508072,98.4951568 C57.0343531,99.1390604 55.0738463,101.023646 54.3327952,103.470018 C53.9345018,104.832334 53.9624077,106.326568 55.3120387,107.326107 C58.4019834,109.609317 62.765452,111.217712 64.7848247,114.964714 C66.0487523,117.415144 66.9218389,120.048099 67.3724631,122.76822 L72.6035517,130.488007 C72.6035517,130.488007 73.3976015,132.958948 78.6921125,131.023293 C83.9866236,129.087638 86.8812269,128.100784 86.8812269,128.100784 C86.8812269,128.100784 90.9859317,125.896218 92.8201107,125.094557 C93.0781017,124.961723 93.3528923,124.864437 93.6369926,124.805351 C94.2534594,124.805351 98.6676661,121.027906 98.8706181,120.507841 C99.0735701,119.987777 94.4082103,117.826338 92.5435886,118.295664 C92.5435886,118.295664 92.277214,119.4119 88.7762915,119.247002 C85.275369,119.082103 83.9561808,120.563653 83.9561808,120.563653 C83.9561808,120.563653 82.2260148,119.947186 81.1148524,120.008072 C80.00369,120.068958 77.9868542,118.993312 76.4824723,119.122694 C76.4824723,119.122694 77.2435424,117.600554 76.2566882,116.332103 C75.2698339,115.063653 74.3616236,115.180351 73.9506458,113.678506 C73.714714,112.821033 72.9358856,110.093865 72.3041974,107.899446 C71.4808798,104.981625 69.8400747,102.360209 67.5754151,100.344557 C66.0989391,99.0405904 64.3434041,97.9852399 62.5827952,98.0613469 C61.544853,98.0900784 60.513447,98.2355985 59.508072,98.4951568 Z" id="Path" fill="#FD6F8D"></path>
                    <path d="M75.7442343,79.3872232 C76.6448339,79.0726476 77.4642528,78.3420203 77.6037823,77.3982934 C77.6621227,76.766194 77.5134325,76.1322572 77.1801199,75.5920203 C76.0537362,73.5625 73.7832103,72.4817804 71.5989391,71.7257841 C69.4146679,70.9697878 67.1263838,70.404059 64.8203413,70.533441 C62.5142989,70.6628229 60.1778137,71.5482011 58.6861162,73.3240314 C58.4232271,73.6885657 58.1126498,74.0162077 57.7626845,74.2982011 C57.2324723,74.6609779 56.5551199,74.7193266 55.9132841,74.6964945 C53.7975092,74.6178506 51.587869,73.7806734 49.6369926,74.6026292 C47.2928967,75.5869465 46.470941,78.4612546 46.1665129,80.9880074 C45.8519373,83.5857934 45.7758303,86.2317804 45.0883303,88.7585332 C44.4008303,91.285286 42.9903137,93.75369 40.6918819,95.0069188 C40.0196033,95.3722325 39.2864391,95.6284594 38.6623616,96.0597325 C38.0382841,96.4910055 37.4928506,97.1632841 37.4903137,97.929428 C37.4903137,98.9720941 38.423893,99.738238 38.9109779,100.659133 C39.2661439,101.331411 39.4031365,102.135609 39.9384225,102.673432 C41.0013838,103.749077 42.8863007,103.140221 44.2511531,103.794742 C45.4637915,104.378229 45.986393,105.806504 46.9402675,106.757841 C48.0615775,107.876614 49.7156365,108.267297 51.2935886,108.376384 C52.1586716,108.434732 53.0541974,108.419511 53.8507841,108.082103 C55.4388838,107.409825 56.2811347,105.595941 56.375,103.875923 C56.4688653,102.155904 55.9741697,100.466328 55.6139299,98.7792897 C55.4946956,98.2237085 55.3932196,97.6300738 55.6139299,97.0998616 C55.802429,96.692363 56.0956986,96.3421903 56.4637915,96.0851015 C58.3385609,94.6035517 61.009917,93.9261993 62.0855627,91.7926661 C62.8085793,90.3593173 62.5929428,88.6570572 62.765452,87.0613469 C62.8314114,86.4803967 62.9760148,85.8639299 63.4072878,85.4656365 C63.9349631,84.9810886 64.7239391,84.9582565 65.4368081,84.8948339 C67.5508071,84.6818453 69.5459301,83.8155186 71.1448339,82.4162823 C71.9211255,81.7389299 72.390452,80.8941421 73.0652675,80.1559041 C73.740083,79.4176661 74.8334871,79.699262 75.7442343,79.3872232 Z" id="Path" fill="#000000" opacity="0.1"></path>
                    <path d="M75.4905443,79.1411439 C76.3911439,78.8240314 77.2105627,78.0934041 77.3500923,77.1496771 C77.4071165,76.5181414 77.2575521,75.8851633 76.923893,75.345941 C75.8000461,73.3164207 73.5269834,72.2357011 71.3427122,71.4771679 C69.158441,70.7186347 66.8676199,70.1579797 64.5641144,70.2873616 C62.2606089,70.4167435 59.9215867,71.3021218 58.4273524,73.077952 C58.1653624,73.4424203 57.8556315,73.7700695 57.5064576,74.0521218 C56.9762454,74.4148985 56.298893,74.4757841 55.6570572,74.4504151 C53.5412823,74.3743081 51.3316421,73.537131 49.3782288,74.3565498 C47.0341328,75.3434041 46.2121771,78.2177122 45.9077491,80.741928 C45.5957103,83.3422509 45.5196033,85.9857011 44.8321033,88.5124539 C44.1446033,91.0392066 42.7315498,93.5101476 40.4331181,94.7608395 C39.7608395,95.12869 39.0276753,95.3823801 38.4035978,95.81619 C37.7795203,96.25 37.2340867,96.9197417 37.2340867,97.6833487 C37.2340867,98.7260148 38.1676661,99.4946956 38.6547509,100.41559 C39.0073801,101.085332 39.1469096,101.892066 39.6695111,102.429889 C40.7350092,103.502998 42.6199262,102.894142 43.9822417,103.551199 C45.197417,104.134686 45.7200185,105.562961 46.673893,106.514299 C47.7926661,107.630535 49.4467251,108.023755 51.027214,108.130304 C51.8897601,108.19119 52.7878229,108.173432 53.5844096,107.836024 C55.1725092,107.163745 56.0147601,105.352399 56.1086255,103.63238 C56.2024908,101.912362 55.7052583,100.220249 55.3475554,98.5357472 C55.2308579,97.9801661 55.1293819,97.3865314 55.3348708,96.8563192 C55.5250974,96.4491674 55.8190633,96.0992081 56.1872694,95.841559 C58.0595018,94.3625461 60.7308579,93.6851937 61.8065037,91.5516605 C62.5295203,90.1183118 62.3138838,88.4160517 62.4889299,86.8203413 C62.5548893,86.2368542 62.6994926,85.6203875 63.1282288,85.224631 C63.658441,84.7375461 64.447417,84.7172509 65.1577491,84.6538284 C67.272457,84.4388239 69.2680425,83.5717947 70.8683118,82.1727399 C71.6446033,81.4979244 72.111393,80.6505996 72.7887454,79.9123616 C73.4660978,79.1741236 74.5874077,79.4607934 75.4905443,79.1411439 Z" id="Path" fill="#FFE2DA"></path>
                    <g id="Group" opacity="0.1" transform="translate(39.068266, 74.077491)" fill="#000000">
                        <path d="M4.30258303,28.722786 C3.03413284,28.1139299 1.30904059,28.6010148 0.218173432,27.7993542 C0.320823795,27.9987809 0.451535475,28.1824607 0.606319188,28.3447878 C1.67181734,29.4178967 3.55673432,28.8090406 4.91904982,29.4660978 C5.22816647,29.617027 5.50815474,29.8214356 5.74607934,30.0698801 C5.38410172,29.5080648 4.88803855,29.0451306 4.30258303,28.722786 Z" id="Path"></path>
                        <path d="M37.863238,1.26845018 C37.6096473,0.810735515 37.2956386,0.389212952 36.9296587,0.0152214022 C37.048249,0.178025724 37.1575111,0.34742438 37.2569188,0.522601476 C37.5902086,1.06191089 37.7389189,1.6950426 37.6805812,2.32633764 C37.5410517,3.27006458 36.7216328,4.00069188 35.8210332,4.31780443 C34.9204336,4.63491697 33.7915129,4.33556273 33.1192343,5.07887454 C32.4469557,5.82218635 31.9725554,6.66443727 31.1962638,7.33925277 C29.5968642,8.73811487 27.6021417,9.60515421 25.488238,9.82034133 C24.7728321,9.88630074 23.9838561,9.90405904 23.4587177,10.3911439 C23.0274446,10.7869004 22.8828413,11.4059041 22.8194188,11.9868542 C22.636762,13.5800277 22.8600092,15.2848247 22.1369926,16.7181734 C21.0613469,18.8491697 18.3899908,19.5265221 16.5152214,21.008072 C16.147866,21.2659649 15.8547799,21.6159184 15.6653598,22.0228321 C15.4573339,22.5505074 15.55881,23.146679 15.6780443,23.7022601 C16.0382841,25.386762 16.5355166,27.0763376 16.4391144,28.798893 C16.3427122,30.5214483 15.5004613,32.3302583 13.9148985,33.0025369 C13.1157749,33.3399446 12.2202491,33.3551661 11.3551661,33.2968173 C9.77721402,33.1902675 8.12315498,32.7894373 7.00184502,31.6808118 L6.98662362,31.6630535 C7.17700733,31.9335504 7.38911766,32.1880828 7.62084871,32.4241236 C8.73962177,33.5403598 10.3936808,33.9335793 11.9741697,34.0401292 C12.8367159,34.1010148 13.7347786,34.0832565 14.5313653,33.7458487 C16.1194649,33.0735701 16.9617159,31.2622232 17.0555812,29.5422048 C17.1494465,27.8221863 16.652214,26.1300738 16.2945111,24.445572 C16.1778137,23.8899908 16.0763376,23.2963561 16.2818266,22.7661439 C16.4720532,22.3589921 16.766019,22.0090328 17.1342251,21.7513838 C19.0064576,20.2723708 21.6778137,19.5950185 22.7534594,17.4614852 C23.476476,16.0281365 23.2608395,14.3258764 23.4358856,12.7301661 C23.501845,12.146679 23.6464483,11.5302122 24.0777214,11.1344557 C24.6053967,10.6473708 25.3943727,10.6270756 26.1072417,10.5636531 C28.2219496,10.3486486 30.2175351,9.48161944 31.8178044,8.08256458 C32.5940959,7.40774908 33.0608856,6.56042435 33.738238,5.82218635 C34.4155904,5.08394834 35.5318266,5.38330258 36.4425738,5.06111624 C37.353321,4.73892989 38.1625923,4.01337638 38.3021218,3.06964945 C38.3548116,2.43755893 38.2007915,1.80545325 37.863238,1.26845018 Z" id="Path"></path>
                    </g>
                    <ellipse id="Oval" fill="#0079FF" opacity="0.1" cx="255.859087" cy="196.614852" rx="18.9252768" ry="2.90475092"></ellipse>
                    <ellipse id="Oval" fill="#0079FF" opacity="0.1" cx="27.0712638" cy="208.015683" rx="10.5027675" ry="1.61093173"></ellipse>
                    <path d="M23.704797,141.574262 C23.704797,141.574262 25.513607,143.94119 22.8701568,147.513146 C20.2267066,151.085101 18.0500461,154.109087 18.9227399,156.331411 C18.9227399,156.331411 22.915821,149.69488 26.1630535,149.603552 C29.410286,149.512223 27.2894373,145.564806 23.704797,141.574262 Z" id="Path" fill="#0079FF"></path>
                    <path d="M23.704797,141.574262 C23.8628885,141.802299 23.9876096,142.051741 24.0751845,142.315037 C27.2437731,146.039207 28.9333487,149.51476 25.8865314,149.603552 C23.0477399,149.684732 19.6432196,154.758533 18.8263376,156.039668 C18.8542435,156.138607 18.8872232,156.237546 18.9227399,156.331411 C18.9227399,156.331411 22.915821,149.69488 26.1630535,149.603552 C29.410286,149.512223 27.2894373,145.564806 23.704797,141.574262 Z" id="Path" fill="#000000" opacity="0.1"></path>
                    <path d="M27.0687269,144.590637 C27.0687269,145.42274 26.9748616,146.097555 26.8607011,146.097555 C26.7465406,146.097555 26.6526753,145.42274 26.6526753,144.590637 C26.6526753,143.758533 26.7693727,144.149216 26.8835332,144.149216 C26.9976937,144.149216 27.0687269,143.755996 27.0687269,144.590637 Z" id="Path" fill="#FFD037"></path>
                    <path d="M28.2230166,145.585101 C27.4923893,145.983395 26.8556273,146.2244 26.7998155,146.122924 C26.7440037,146.021448 27.2919742,145.615544 28.0251384,145.217251 C28.7583026,144.818958 28.466559,145.110701 28.5325185,145.217251 C28.5984779,145.323801 28.9561808,145.186808 28.2230166,145.585101 Z" id="Path" fill="#FFD037"></path>
                    <path d="M14.1432196,141.574262 C14.1432196,141.574262 12.3344096,143.94119 14.9778598,147.513146 C17.62131,151.085101 19.7979705,154.109087 18.9227399,156.331411 C18.9227399,156.331411 14.9321956,149.69488 11.6824262,149.603552 C8.43265683,149.512223 10.5687269,145.564806 14.1432196,141.574262 Z" id="Path" fill="#0079FF"></path>
                    <path d="M14.1432196,141.574262 C13.9851281,141.802299 13.860407,142.051741 13.7728321,142.315037 C10.6042435,146.039207 8.9146679,149.51476 11.9614852,149.603552 C14.8002768,149.684732 18.204797,154.758533 19.0191421,156.039668 C18.9935152,156.138947 18.96131,156.23641 18.9227399,156.331411 C18.9227399,156.331411 14.9321956,149.69488 11.6824262,149.603552 C8.43265683,149.512223 10.5687269,145.564806 14.1432196,141.574262 Z" id="Path" fill="#000000" opacity="0.1"></path>
                    <path d="M10.7792897,144.590637 C10.7792897,145.42274 10.873155,146.097555 10.9873155,146.097555 C11.101476,146.097555 11.1953413,145.42274 11.1953413,144.590637 C11.1953413,143.758533 11.0786439,144.149216 10.9644834,144.149216 C10.8503229,144.149216 10.7792897,143.755996 10.7792897,144.590637 Z" id="Path" fill="#FFD037"></path>
                    <path d="M9.625,145.585101 C10.3556273,145.983395 10.9923893,146.2244 11.0482011,146.122924 C11.1040129,146.021448 10.5560424,145.615544 9.82287823,145.217251 C9.08971402,144.818958 9.38145756,145.110701 9.31549815,145.217251 C9.24953875,145.323801 8.89183579,145.186808 9.625,145.585101 Z" id="Path" fill="#FFD037"></path>
                    <ellipse id="Oval" fill="#0079FF" opacity="0.1" cx="18.9252768" cy="171.535055" rx="18.9252768" ry="2.90475092"></ellipse>
                    <path d="M28.6644373,153.142528 L28.5731089,153.880766 L28.4462638,154.925969 L28.3929889,155.359779 L28.2661439,156.404982 L28.212869,156.841328 L28.086024,157.883994 L26.6374539,169.759225 C26.508072,170.819649 24.775369,171.644142 22.6875,171.644142 L15.1605166,171.644142 C13.0701107,171.644142 11.3551661,170.819649 11.2130996,169.759225 L9.76199262,157.886531 L9.6351476,156.843865 L9.58187269,156.407518 L9.45249077,155.362315 L9.40175277,154.928506 L9.27490775,153.883303 L9.18357934,153.145065 C9.11000923,152.546356 10.0461255,152.038976 11.2308579,152.038976 L26.6196956,152.038976 C27.7968173,152.036439 28.7380074,152.543819 28.6644373,153.142528 Z" id="Path" fill="#65617D"></path>
                    <polygon id="Path" fill="#9D9CB5" points="28.5756458 153.880766 28.4488007 154.923432 9.40175277 154.923432 9.27490775 153.880766"></polygon>
                    <polygon id="Path" fill="#9D9CB5" points="28.3955258 155.359779 28.2686808 156.404982 9.58440959 156.404982 9.45502768 155.359779"></polygon>
                    <polygon id="Path" fill="#9D9CB5" points="28.212869 156.838792 28.086024 157.883994 9.76199262 157.883994 9.6351476 156.838792"></polygon>
                </g>
            </g>
        </g>
    </g>
</svg>