<?xml version="1.0" encoding="UTF-8"?>
<svg class="threeIcon" viewBox="0 0 300 210" version="1.1" xmlns="http://www.w3.org/2000/svg" xmlns:xlink="http://www.w3.org/1999/xlink">
    <!-- Generator: Sketch 52.4 (67378) - http://www.bohemiancoding.com/sketch -->
    <title>undraw_pilates_gpdb (1)</title>
    <desc>Created with Sketch.</desc>
    <defs>
        <linearGradient x1="49.9993511%" y1="99.9992914%" x2="49.9993511%" y2="0.00518749242%" id="linearGradient-1">
            <stop stop-color="#808080" stop-opacity="0.25" offset="0%"></stop>
            <stop stop-color="#808080" stop-opacity="0.12" offset="54%"></stop>
            <stop stop-color="#808080" stop-opacity="0.1" offset="100%"></stop>
        </linearGradient>
    </defs>
    <g id="About/Team" stroke="none" stroke-width="1" fill="none" fill-rule="evenodd">
        <g id="Customers" transform="translate(-240.000000, -1534.000000)">
            <g id="threeSection" transform="translate(216.000000, 1111.000000)">
                <g id="three2" transform="translate(24.000000, 423.000000)">
                    <g id="undraw_pilates_gpdb-(1)">
                        <path d="M294.200881,59.907489 C291.347581,53.2832506 287.490904,47.1380645 282.76652,41.6881057 L124.128634,40.1259912 L254.740969,21.7823789 C246.304232,18.4210137 237.321516,16.6389847 228.240529,16.5251101 C202.582217,-3.99247724 166.492765,-5.21581204 139.503965,13.5171806 C129.000244,8.11930542 117.356651,5.31512723 105.547137,5.33920705 C70.3004405,5.33920705 40.9295154,29.7515419 34.3400881,62.1251101 L294.200881,59.907489 Z" id="Path" fill="#0079FF" opacity="0.1"></path>
                        <path d="M299.767401,87.0581498 C299.775211,78.2795273 298.097254,69.5810674 294.82467,61.4352423 L19.8845815,90.2933921 C17.0571248,95.4194579 14.8934901,100.884501 13.445815,106.556828 L98.585022,119.244053 L11.5030837,128.495154 C14.122467,165.142731 45.5418502,194.082819 83.9259912,194.082819 C103.244934,194.082819 120.798238,186.748018 133.80793,174.787665 C146.854626,186.972687 164.577093,194.466079 184.104846,194.466079 C213.079295,194.466079 238.0837,177.970044 249.729515,154.118062 C273.092511,146.717181 291.227313,128.085463 297.451982,104.793833 L189.777093,88.107489 L299.751542,88.107489 C299.751542,87.7585903 299.767401,87.4096916 299.767401,87.0581498 Z" id="Path" fill="#0079FF" opacity="0.1"></path>
                        <ellipse id="Oval" fill="#0079FF" cx="128.611454" cy="194.743612" rx="109.974449" ry="10.4405286"></ellipse>
                        <path d="M214.979736,173.693392 C214.649339,173.994714 213.425551,174.578855 211.776211,175.279295 L211.47489,175.406167 C211.671658,175.251691 211.801345,175.027343 211.837004,174.779736 C211.837004,172.242291 192.518062,177.314537 188.77533,177.314537 C187.059912,177.314537 185.164758,176.807048 183.618502,176.257269 C180.908683,175.285927 178.107684,174.590769 175.25815,174.182379 C174.028248,173.419921 172.743694,172.749373 171.414978,172.176211 L171.414978,172.157709 C171.49163,172.007048 171.562996,171.853744 171.623789,171.700441 C171.623789,171.676652 171.642291,171.65022 171.652863,171.623789 L171.748018,171.380617 C171.777093,171.301322 171.806167,171.222026 171.829956,171.142731 C172.963877,167.799119 172.305727,164.053744 171.105727,160.704846 C170.511013,159.052863 169.784141,157.303084 170.193833,155.598238 C170.27165,155.282173 170.381468,154.974859 170.521586,154.681057 C170.582379,154.554185 170.648458,154.41674 170.717181,154.305727 C170.748899,154.244934 170.785903,154.181498 170.822907,154.120705 C170.918062,153.959471 171.015859,153.798238 171.118943,153.639648 C171.187665,153.536564 171.256388,153.430837 171.327753,153.327753 C171.520705,153.044934 171.718943,152.759471 171.906608,152.471366 L171.930396,152.437004 C171.993833,152.34185 172.054626,152.244053 172.112775,152.146256 C172.170925,152.048458 172.20793,151.992952 172.252863,151.9163 L172.318943,151.8 C172.3306,151.785818 172.341201,151.7708 172.350661,151.755066 C172.379736,151.699559 172.414097,151.638767 172.443172,151.580617 L172.477533,151.511894 C172.553756,151.366573 172.622566,151.217483 172.6837,151.065198 C172.710132,150.993833 172.739207,150.92511 172.760352,150.856388 C172.781498,150.787665 172.778855,150.790308 172.789427,150.75859 C172.815859,150.674009 172.842291,150.59207 172.866079,150.494273 L172.881938,150.43348 L172.897797,150.370044 C172.911013,150.317181 172.926872,150.264317 172.937445,150.211454 C172.937923,150.218494 172.937923,150.225559 172.937445,150.232599 C173.251982,148.911013 173.106608,147.459912 172.847577,146.096035 C172.59439,144.788616 172.251734,143.500124 171.822026,142.239648 C171.37533,140.918062 170.825551,139.527753 171.079295,138.148018 C171.166755,137.732713 171.297881,137.327819 171.470485,136.940088 C171.470485,136.940088 171.470485,136.940088 171.470485,136.940088 C171.584141,136.675771 171.703084,136.411454 171.811454,136.131278 C171.87489,135.972687 171.93304,135.811454 171.988546,135.65022 L172.036123,135.504846 C172.062555,135.425551 172.081057,135.346256 172.102203,135.26696 L172.118062,135.192952 C172.118062,135.179736 172.118062,135.16652 172.118062,135.155947 C172.2872,134.322153 172.329969,133.467661 172.244934,132.621145 C172.107489,130.630837 171.637004,128.622026 170.534802,126.962115 C169.903658,126.003499 169.055086,125.207453 168.05815,124.638767 C167.729851,124.454893 167.383542,124.30521 167.02467,124.19207 C167.053744,124.139207 167.088106,124.088987 167.117181,124.038767 C167.211949,123.873564 167.282283,123.695503 167.325991,123.510132 C167.39018,123.071965 167.355867,122.624998 167.225551,122.201762 C166.784141,120.33304 166.329515,118.432599 165.425551,116.738326 C164.521586,115.044053 163.09163,113.537445 161.254626,112.961233 C160.337445,112.670485 159.346256,112.620264 158.466079,112.223789 C158.093392,112.054626 157.747137,111.827313 157.385022,111.631718 C156.409876,111.098862 155.323768,110.801088 154.213216,110.762115 C153.996476,110.748899 153.785022,110.762115 153.570925,110.762115 L153.436123,110.762115 C153.261674,110.762115 153.089868,110.791189 152.907489,110.812335 C152.688106,110.84141 152.466079,110.865198 152.259912,110.904846 C151.85815,110.984141 151.522467,111.140088 151.41674,111.597357 C151.41674,111.597357 151.41674,111.615859 151.41674,111.626432 C151.41674,111.637004 151.41674,111.689868 151.398238,111.721586 C151.281938,111.703084 151.162996,111.684581 151.044053,111.671366 C150.612223,111.623588 150.178078,111.599763 149.743612,111.6 C144.05255,111.61473 139.25229,115.841943 138.518062,121.485463 C138.274541,121.519795 138.02915,121.539214 137.78326,121.543612 C136.783367,121.543555 135.7873,121.420156 134.817621,121.176211 L133.120705,120.689868 C133.120705,120.689868 133.136564,120.647577 133.173568,120.562996 L133.482819,120.327753 L133.252863,120.372687 C133.63348,119.497797 134.701322,117.039648 135.293392,115.860793 C136.017621,114.412335 141.208811,112.601762 141.208811,112.601762 C148.345374,112.239648 153.896035,107.051101 153.896035,107.051101 C153.896035,107.051101 168.729515,109.464317 177.901322,108.732159 C187.073128,108 190.215859,110.907489 190.215859,110.907489 C190.215859,110.907489 196.255507,127.451101 206.278414,122.960352 C213.819383,119.585022 200.365639,109.948018 193.247577,105.385903 C193.657269,105.615859 194.061674,105.853744 194.45815,106.107489 C194.854626,106.361233 195.311894,106.657269 195.763877,106.953304 C194.918062,106.385022 194.111894,105.856388 193.371806,105.38326 C190.89687,103.796511 188.154712,102.671706 185.278414,102.063436 L159.079295,96.5312775 L158.994714,96.5312775 L158.94978,96.5312775 C152.058447,97.2786095 145.292409,98.9123732 138.819383,101.39207 C131.051101,104.365639 122.01674,108.486344 121.155066,109.321586 C118.829075,111.594714 115.35859,113.788546 115.35859,113.788546 C112.8,114.155947 109.411454,116.524229 107.12511,118.340088 L106.74978,118.638767 C106.707489,118.437885 106.694273,118.3163 106.694273,118.3163 C106.694273,118.3163 103.477533,120.264317 103.432599,121.350661 C103.387665,122.437004 96.8669604,127.694273 96.8669604,127.694273 C96.8669604,127.694273 93.1982379,133.501322 91.2052863,133.781498 C89.2123348,134.061674 86.3127753,140.347137 86.3127753,140.347137 L82.876652,147.095154 C82.876652,147.095154 81.0660793,148.945374 81.2907489,150.084581 C81.5154185,151.223789 79.8872247,152.574449 79.8872247,152.574449 C79.8872247,152.574449 77.2599119,154.837004 77.3048458,155.608811 C77.3497797,156.380617 75.9462555,157.194714 75.9462555,157.194714 C75.9462555,157.194714 74.0008811,160.681057 73.4114537,162.539207 C73.3664703,162.681102 73.3664703,162.833436 73.4114537,162.97533 L73.3770925,162.991189 C73.3770925,162.991189 71.7356828,166.69163 71.7911894,168.153304 C71.8229075,169.263436 71.1964758,170.45022 70.9004405,170.947137 L70.7788546,170.99207 L70.876652,170.99207 C70.8026432,171.1163 70.7524229,171.190308 70.7497797,171.195595 C70.7497797,171.195595 63.4440529,166.173568 52.7577093,168.523348 C42.0713656,170.873128 42.785022,177.129515 42.785022,177.129515 C42.785022,177.129515 43.2079295,184.826432 46.2872247,187.46696 C49.3665198,190.107489 51.3092511,190.229075 53.0484581,192.22467 C54.7876652,194.220264 63.8563877,195.132159 63.8563877,195.132159 C63.8563877,195.132159 81.7876652,196.036123 91.4484581,195.132159 C101.109251,194.228194 105.478414,194.225551 105.478414,194.225551 C105.478414,194.225551 116.090749,192.903965 120.859031,193.74185 C125.627313,194.579736 132.391189,194.347137 132.391189,194.347137 C132.512911,194.119356 132.601893,193.875545 132.655507,193.622907 L132.753304,193.622907 C132.873203,193.403627 132.962154,193.168797 133.017621,192.92511 C135.315313,192.423776 137.646674,192.091608 139.992952,191.931278 C144.940969,191.690749 149.286344,189.75859 149.286344,189.75859 C149.286344,189.75859 153.005286,189.790308 158.587665,193.651982 C164.170044,197.513656 180.808811,195.311894 180.808811,195.311894 L189.988546,194.587665 C189.988546,194.587665 196.022907,193.620264 197.957709,196.157709 C199.892511,198.695154 204.597357,199.659912 206.167401,196.157709 C207.737445,192.655507 215.103965,185.894273 215.103965,185.894273 C215.103965,185.894273 221.867841,182.027313 224.8837,172.009692 C227.899559,161.99207 216.303965,172.490749 214.979736,173.693392 Z M162.256388,133.755066 C162.76652,133.210573 163.184141,132.581498 163.696916,132.037004 C164.389427,131.304846 165.251101,130.747137 165.935683,130.009692 C166.297591,129.62578 166.584466,129.177538 166.781498,128.688106 L166.797357,128.717181 L166.940088,129.095154 C166.95859,129.155947 166.971806,129.214097 166.987665,129.27489 C167.003524,129.335683 167.019383,129.414978 167.032599,129.486344 C167.045815,129.557709 167.048458,129.565639 167.053744,129.605286 C167.069604,129.713656 167.080176,129.82467 167.085463,129.935683 C167.085463,129.980617 167.085463,130.025551 167.085463,130.070485 C167.085463,130.115419 167.085463,130.215859 167.085463,130.289868 C167.085463,130.363877 167.085463,130.408811 167.085463,130.46696 C167.085463,130.576211 167.07489,130.684581 167.053744,130.79207 C167.053744,130.85815 167.035242,130.924229 167.02467,130.990308 C167.014097,131.056388 167.006167,131.103965 166.995595,131.159471 C166.985022,131.214978 166.977093,131.265198 166.963877,131.318062 C166.963877,131.318062 166.963877,131.318062 166.963877,131.333921 C166.937445,131.45022 166.911013,131.56652 166.881938,131.682819 C166.8025,131.993253 166.704527,132.298646 166.588546,132.597357 C166.390308,133.125991 166.157709,133.654626 165.954185,134.18326 C165.898678,134.325991 165.845815,134.471366 165.795595,134.614097 C165.774449,134.677533 165.753304,134.738326 165.729515,134.801762 C165.705727,134.865198 165.684581,134.947137 165.660793,135.018502 L165.660793,135.05022 C165.581623,135.310701 165.517203,135.575438 165.467841,135.843172 C165.466581,135.863417 165.466581,135.88372 165.467841,135.903965 C165.467841,135.922467 165.467841,135.943612 165.467841,135.962115 L165.444053,136.14185 C165.444053,136.14185 165.444053,136.14185 165.444053,136.162996 C165.444053,136.184141 165.444053,136.237004 165.444053,136.271366 C165.444053,136.374449 165.444053,136.47489 165.425551,136.577974 C165.425551,136.630837 165.425551,136.681057 165.425551,136.731278 C165.425551,136.855507 165.425551,136.979736 165.444053,137.101322 C165.444053,137.148899 165.444053,137.199119 165.462555,137.246696 C165.481057,137.294273 165.462555,137.362996 165.481057,137.421145 C165.482287,137.429913 165.482287,137.438809 165.481057,137.447577 C165.481057,137.503084 165.499559,137.555947 165.510132,137.608811 C165.520705,137.661674 165.539207,137.764758 165.555066,137.844053 L165.578855,137.944493 C165.578855,137.997357 165.6,138.052863 165.615859,138.105727 C165.631718,138.15859 165.634361,138.179736 165.644934,138.21674 C165.655507,138.253744 165.644934,138.272247 165.666079,138.298678 L165.705727,138.44141 C165.705727,138.481057 165.729515,138.520705 165.740088,138.557709 L165.819383,138.822026 C165.845815,138.898678 165.869604,138.97533 165.893392,139.051982 C166.292511,140.278414 166.770925,141.488987 166.577974,142.710132 C166.564588,142.808829 166.546061,142.906759 166.522467,143.003524 C166.271366,144.010573 165.560352,144.82467 164.899559,145.622907 C163.924393,146.78921 163.008692,148.00397 162.155947,149.262555 C161.800173,149.758406 161.488834,150.284675 161.225551,150.835242 C161.162115,150.97533 161.103965,151.118062 161.051101,151.260793 L160.985022,151.437885 C160.530396,152.865198 160.773568,154.414097 161.019383,155.89163 L162.029075,161.955066 C162.060793,162.142731 162.092511,162.330396 162.121586,162.520705 L162.153304,162.729515 L162.177093,162.893392 C162.214097,163.157709 162.245815,163.437885 162.26696,163.710132 C162.26696,163.736564 162.26696,163.765639 162.26696,163.79207 C162.26696,163.903084 162.26696,164.011454 162.282819,164.122467 C162.282819,164.159471 162.282819,164.196476 162.282819,164.23348 C162.282819,164.34185 162.282819,164.447577 162.282819,164.555947 C162.282819,164.587665 162.282819,164.619383 162.282819,164.651101 C162.282819,164.788546 162.282819,164.915419 162.253744,165.060793 C162.253744,165.060793 162.253744,165.081938 162.253744,165.092511 C162.237885,165.232599 162.21674,165.372687 162.190308,165.510132 C162.158612,165.675694 162.116232,165.839031 162.063436,165.999119 C161.801926,166.718814 161.439734,167.397813 160.987665,168.015859 L160.324229,167.777974 C160.324229,167.777974 154.773568,160.64141 152.476652,157.392952 C150.179736,154.144493 150.906608,152.563877 150.906608,152.563877 C151.268722,146.888987 146.920705,142.540969 144.748018,141.462555 C143.936564,141.05815 143.193833,140.185903 142.580617,139.252863 C142.780453,139.246577 142.980441,139.258965 143.177974,139.289868 L143.022026,138.909251 C143.07489,138.909251 143.12511,138.909251 143.177974,138.927753 L140.656388,132.790308 C141.264691,132.523137 141.906819,132.340815 142.564758,132.248458 C142.765639,132.21674 142.969163,132.187665 143.170044,132.163877 C144.66876,133.252637 146.412685,133.955291 148.247577,134.209692 C148.361233,134.225551 148.47489,134.230837 148.588546,134.244053 C148.559471,134.2837 148.53304,134.325991 148.509251,134.365639 L148.477533,134.429075 C148.463868,134.454493 148.452374,134.481019 148.443172,134.50837 C148.431568,134.538339 148.42272,134.569305 148.41674,134.600881 C148.41674,134.622026 148.41674,134.637885 148.41674,134.659031 C148.408855,134.712486 148.408855,134.766809 148.41674,134.820264 C149.492511,134.912775 150.679295,135.055507 151.382379,135.877533 C151.516661,136.073597 151.687108,136.242249 151.884581,136.374449 C152.05787,136.441376 152.243764,136.469351 152.429075,136.456388 L153.6,136.456388 C154.969681,136.481405 156.338474,136.370733 157.686344,136.125991 C159.354185,135.769163 161.045815,135.034361 162.256388,133.755066 Z M140.037885,133.14978 C140.205759,133.010118 140.390455,132.892019 140.587665,132.798238 C140.529515,132.832599 140.336564,132.954185 140.037885,133.14978 Z M147.718943,173.214978 C142.329515,169.961233 139.025551,171.282819 139.025551,171.282819 L138.422907,171.282819 C135.779736,171.282819 115.115419,170.204405 115.115419,170.204405 L114.755947,170.204405 C114.875538,170.19383 114.995828,170.19383 115.115419,170.204405 C115.115419,170.204405 114.927753,168.980617 114.507489,168.317181 C114.470379,168.259257 114.429775,168.203648 114.385903,168.150661 C114.631718,167.093392 115.128634,164.62467 115.025551,162.663436 C114.888106,160.0837 115.025551,157.728634 115.025551,157.728634 C120.642291,159.660793 128.394714,155.770044 128.505727,155.709251 C134.585022,154.004405 136.963877,155.344493 136.963877,155.344493 C137.447577,157.517181 142.881938,166.694273 142.881938,166.694273 C142.881938,166.694273 147.832599,170.437004 149.754185,173.336564 C150.034886,173.750322 150.352483,174.137807 150.703084,174.494273 C150.401762,174.391189 150.113656,174.288106 149.84141,174.185022 C149.107423,173.923111 148.397318,173.598567 147.718943,173.214978 Z" id="Shape" fill="url(#linearGradient-1)" fill-rule="nonzero"></path>
                        <path d="M205.099559,123.362115 C195.240529,127.778855 189.301322,111.507489 189.301322,111.507489 C189.301322,111.507489 186.21674,108.655507 177.187665,109.369163 C168.15859,110.082819 153.552423,107.703965 153.552423,107.703965 C153.552423,107.703965 148.088987,112.815859 141.081938,113.164758 C141.081938,113.164758 135.97533,114.946256 135.26696,116.373568 C134.688106,117.531278 133.636123,119.94978 133.260793,120.808811 C133.239077,120.872864 133.213479,120.935535 133.184141,120.996476 C133.147137,121.078414 133.131278,121.123348 133.131278,121.123348 L132.837885,121.260793 L126.954185,124.086344 L118.879295,126.346256 L113.770044,126.938326 L105.100441,120.930396 C105.100441,120.930396 106.102203,119.994714 107.574449,118.815859 C109.823789,117.031718 113.156828,114.700441 115.673128,114.340969 C115.673128,114.340969 119.088106,112.181498 121.374449,109.948018 C122.222907,109.115419 131.109251,105.063436 138.748018,102.137445 C145.11501,99.6990186 151.769902,98.09193 158.548018,97.3559471 L184.3163,102.798238 C187.147507,103.395047 189.847378,104.499173 192.285463,106.057269 C199.276652,110.55859 212.526872,120.037004 205.099559,123.362115 Z" id="Path" fill="#FFC1C7"></path>
                        <g id="Group" opacity="0.1" transform="translate(105.198238, 97.268722)" fill="#000000">
                            <path d="M1.09162996,24.3832599 C1.09162996,24.3832599 2.09339207,23.4449339 3.56563877,22.2687225 C5.81497797,20.4845815 9.14801762,18.153304 11.6643172,17.7938326 C11.6643172,17.7938326 15.0792952,15.6343612 17.3656388,13.4008811 C18.2140969,12.5656388 27.1004405,8.51629956 34.739207,5.59030837 C41.1067879,3.15786574 47.7618159,1.55785166 54.539207,0.829955947 L80.307489,6.26960352 C83.1381622,6.86685988 85.8372402,7.97192364 88.2740088,9.53127753 C88.6845815,9.7938326 89.1127753,10.0713656 89.5585903,10.3638767 C88.7259912,9.80352423 87.9330396,9.28281938 87.2061674,8.81762115 C84.7690222,7.25955922 82.0700229,6.15542313 79.2396476,5.55859031 L53.4713656,0.116299559 C46.6931947,0.851962713 40.0382618,2.45906105 33.6713656,4.89779736 C26.0299559,7.82378855 17.1436123,11.8757709 16.2977974,12.70837 C14.0088106,14.9418502 10.5964758,17.1013216 10.5964758,17.1013216 C8.08017621,17.460793 4.74449339,19.7920705 2.49779736,21.5762115 C1.02555066,22.7471366 0.0237885463,23.6907489 0.0237885463,23.6907489 L8.69339207,29.6986784 L8.7277533,29.6986784 L1.09162996,24.3832599 Z" id="Path"></path>
                            <path d="M85.3004405,14.9497797 C84.9758306,14.6856684 84.6209056,14.4611784 84.2431718,14.2810573 C84.4810573,14.9101322 87.4889868,22.7022026 92.6193833,25.6942731 C87.9409692,22.1814978 85.3004405,14.9497797 85.3004405,14.9497797 Z" id="Path"></path>
                        </g>
                        <path d="M172.242291,150.399119 C172.209467,150.535835 172.169769,150.670808 172.123348,150.803524 C172.102203,150.872247 172.073128,150.940969 172.049339,151.007048 C171.982121,151.172165 171.906245,151.333622 171.822026,151.490749 C171.787665,151.562115 171.748018,151.63348 171.713656,151.702203 C171.705186,151.717936 171.695463,151.732963 171.684581,151.747137 C171.647577,151.815859 171.610573,151.879295 171.570925,151.942731 C171.306608,152.39207 171,152.820264 170.706608,153.264317 C170.608811,153.407048 170.511013,153.552423 170.418502,153.700441 C170.401917,153.730692 170.383376,153.759829 170.362996,153.787665 C170.312775,153.869604 170.259912,153.956828 170.212335,154.051982 C170.164758,154.147137 170.127753,154.194714 170.090749,154.266079 C170.053744,154.337445 170.048458,154.340088 170.029956,154.377093 L169.9163,154.596476 C169.783736,154.871896 169.67839,155.159606 169.601762,155.455507 C169.194714,157.133921 169.913656,158.854626 170.497797,160.477533 C171.676652,163.770925 172.326872,167.455507 171.211454,170.743612 C171.185022,170.820264 171.15859,170.899559 171.129515,170.978855 C171.100441,171.05815 171.05022,171.187665 171.00793,171.290749 C170.944493,171.449339 170.873128,171.605286 170.793833,171.761233 C170.191189,172.934802 169.157709,173.989427 167.886344,173.875771 C166.139207,173.722467 165.290749,171.581498 163.699559,170.851982 C162.317181,170.217621 160.570044,170.735683 159.26696,169.953304 C159.37556,169.596966 159.523614,169.253871 159.70837,168.930396 C159.943612,168.496916 160.237004,168.081938 160.501322,167.669604 C160.944733,167.060562 161.300616,166.392392 161.55859,165.684581 C161.609276,165.526769 161.650755,165.366146 161.682819,165.203524 C161.684314,165.191235 161.684314,165.178809 161.682819,165.16652 C161.696035,165.084581 161.711894,165.00793 161.722467,164.925991 C161.73304,164.844053 161.743612,164.770044 161.751542,164.685463 C161.752938,164.6714 161.752938,164.657234 161.751542,164.643172 C161.751542,164.550661 161.751542,164.45815 161.770044,164.362996 C161.772695,163.469965 161.68413,162.578998 161.505727,161.703965 C161.176211,159.7163 160.844934,157.728634 160.511894,155.740969 C160.268722,154.287225 160.030837,152.764758 160.480176,151.361233 C160.514537,151.260793 160.551542,151.160352 160.588546,151.062555 C160.625551,150.964758 160.670485,150.864317 160.715419,150.769163 C160.975005,150.228283 161.280996,149.710927 161.629956,149.222907 C162.468722,147.989427 163.368282,146.795595 164.328634,145.64141 C164.978855,144.848458 165.676652,144.055507 165.914537,143.06696 C165.940257,142.97142 165.959682,142.874295 165.972687,142.776211 C166.125991,141.822026 165.856388,140.870485 165.539207,139.9163 C165.498678,139.805286 165.461674,139.694273 165.428194,139.58326 C165.317181,139.255507 165.206167,138.92511 165.111013,138.589427 C165.079295,138.481057 165.05022,138.370044 165.021145,138.259031 C164.964804,138.036794 164.919812,137.811833 164.886344,137.585022 C164.85113,137.361112 164.831699,137.135005 164.828194,136.90837 C164.828194,136.802643 164.828194,136.694273 164.828194,136.588546 C164.828194,136.482819 164.828194,136.429956 164.849339,136.348018 C164.870485,136.266079 164.873128,136.178855 164.886344,136.0837 C164.899559,135.988546 164.907489,135.956828 164.920705,135.893392 C164.933921,135.829956 164.960352,135.700441 164.986784,135.60793 C165.001767,135.531709 165.022081,135.456635 165.047577,135.38326 C165.060793,135.322467 165.079295,135.261674 165.095154,135.203524 L165.163877,134.99207 L165.272247,134.685463 C165.306608,134.585022 165.346256,134.481938 165.385903,134.381498 C165.584141,133.852863 165.811454,133.324229 166.009692,132.81674 C166.12115,132.523242 166.217314,132.224162 166.297797,131.920705 C166.297797,131.920705 166.297797,131.920705 166.297797,131.920705 C166.297797,131.865198 166.326872,131.804405 166.340088,131.746256 C166.356377,131.687955 166.369611,131.628844 166.379736,131.569163 C166.398135,131.496039 166.412256,131.421904 166.422026,131.347137 C166.440529,131.249339 166.459031,131.146256 166.469604,131.045815 C166.480176,130.945374 166.490749,130.842291 166.498678,130.739207 C166.506608,130.636123 166.498678,130.535683 166.498678,130.435242 C166.503223,130.077162 166.452403,129.720531 166.348018,129.377974 C166.308736,129.238128 166.257444,129.101939 166.194714,128.970925 C166.148838,128.880413 166.098557,128.792202 166.044053,128.706608 C165.705727,128.156828 165.179736,127.736564 164.873128,127.162996 C164.692228,126.810939 164.601415,126.419533 164.608811,126.023789 C164.607864,125.915924 164.614932,125.808139 164.629956,125.701322 C164.645902,125.592015 164.670652,125.484175 164.703965,125.378855 C164.714864,125.336424 164.729002,125.294893 164.746256,125.254626 C164.765639,125.210573 164.784141,125.168282 164.801762,125.127753 C164.827678,125.074918 164.856808,125.023721 164.888987,124.974449 C164.915419,124.940088 164.939207,124.903084 164.965639,124.871366 C165.245815,124.517181 165.695154,124.342731 166.311013,124.522467 L166.461674,124.572687 C166.81383,124.685723 167.153838,124.833591 167.476652,125.014097 C168.457226,125.573157 169.292154,126.355562 169.913656,127.297797 C170.997357,128.931278 171.459912,130.90837 171.594714,132.864317 C171.67661,133.69761 171.634747,134.538435 171.470485,135.359471 C171.470485,135.393833 171.451982,135.43348 171.446696,135.467841 C171.425551,135.547137 171.407048,135.626432 171.380617,135.703084 C171.220168,136.182865 171.034896,136.653985 170.825551,137.114537 C170.825551,137.114537 170.825551,137.114537 170.825551,137.114537 C170.655894,137.496511 170.526559,137.895145 170.439648,138.303965 C170.191189,139.662555 170.73304,141.018502 171.171806,142.326872 C171.587457,143.568955 171.917742,144.837991 172.160352,146.12511 C172.46696,147.544493 172.614978,149.032599 172.242291,150.399119 Z" id="Path" fill="#965D7B"></path>
                        <g id="Group" opacity="0.1" transform="translate(159.118943, 124.757709)" fill="#000000">
                            <path d="M11.7436123,12.3621145 C11.9542784,11.8999948 12.1404397,11.4270921 12.3013216,10.9453744 C12.3356828,10.8317181 12.3674009,10.7180617 12.3938326,10.6017621 C12.1240213,11.1675564 11.9063796,11.7567815 11.7436123,12.3621145 Z" id="Path"></path>
                            <path d="M6.98061674,3.94889868 C7.56740088,4.90044053 7.5092511,6.06343612 7.2185022,7.1814978 C7.23964758,7.12334802 7.26343612,7.06784141 7.2845815,7.00969163 C7.78942731,5.68810573 8.07753304,4.10220264 7.33744493,2.88105727 C6.99647577,2.33127753 6.46784141,1.90837004 6.16387665,1.33744493 C5.97023269,0.959661281 5.87909293,0.537684209 5.89955947,0.113656388 C5.45286344,0.668722467 5.42114537,1.66255507 5.82026432,2.40792952 C6.11101322,2.97885463 6.63964758,3.39911894 6.98061674,3.94889868 Z" id="Path"></path>
                            <path d="M10.8528634,29.6405286 C10.8396476,29.6986784 10.8290749,29.7568282 10.8185022,29.8176211 C11.4,28.5832599 12.4255507,27.5365639 12.9330396,26.2572687 C13.0398453,25.9890459 13.1238433,25.7122946 13.184141,25.4299559 C12.5048458,26.8863436 11.2176211,28.0678414 10.8528634,29.6405286 Z" id="Path"></path>
                            <path d="M12.245815,45.4757709 C11.7013216,46.8185022 10.5674009,48.185022 9.1215859,48.0581498 C7.37444934,47.907489 6.52863436,45.7665198 4.93480176,45.0343612 C3.5814978,44.4132159 1.87929515,44.8942731 0.586784141,44.1832599 C0.403121059,44.507279 0.255120137,44.8502512 0.145374449,45.2061674 C1.44845815,45.9991189 3.19559471,45.4704846 4.57797357,46.1022026 C6.16387665,46.8343612 7.01762115,48.9779736 8.76475771,49.1286344 C10.2105727,49.2528634 11.3444934,47.8863436 11.8889868,46.5436123 C12.0348933,46.1812025 12.1593376,45.8105171 12.261674,45.4334802 L12.245815,45.4757709 Z" id="Path"></path>
                            <path d="M2.40792952,36.9568282 C2.60088106,38.1145374 2.79118943,39.3171806 2.56387665,40.4563877 C2.65256155,40.2657247 2.72936036,40.0697553 2.7938326,39.8696035 C3.20088106,38.5929515 2.98414097,37.2105727 2.76475771,35.8889868 C2.43524229,33.9013216 2.10396476,31.9127753 1.77092511,29.923348 C1.55682819,28.630837 1.34537445,27.2801762 1.61762115,26.0193833 C1.5271866,26.2126531 1.44862659,26.4112599 1.38237885,26.6140969 C0.933039648,28.0176211 1.17356828,29.5374449 1.41409692,30.9911894 C1.74713656,32.9823789 2.0784141,34.9709251 2.40792952,36.9568282 Z" id="Path"></path>
                            <path d="M7.1814978,17.2519824 C7.69162996,15.2061674 6.12422907,13.2 6.09515419,11.0933921 C6.09951834,10.6033957 6.16975116,10.1162111 6.30396476,9.64493392 C5.95852371,10.441368 5.76747391,11.2961588 5.74096916,12.1638767 C5.75947137,14.1726872 7.18942731,16.0889868 6.88017621,18.0396476 C7.00964416,17.7891367 7.11071187,17.5249421 7.1814978,17.2519824 Z" id="Path"></path>
                        </g>
                        <path d="M223.390308,171.605286 C220.422026,181.461674 213.769163,185.262555 213.769163,185.262555 C213.769163,185.262555 206.524229,191.915419 204.977974,195.367401 C203.431718,198.819383 198.803524,197.862555 196.905727,195.367401 C195.00793,192.872247 189.066079,193.826432 189.066079,193.826432 L180.037004,194.537445 C180.037004,194.537445 163.675771,196.707489 158.18326,192.906608 C152.690749,189.105727 149.037885,189.076652 149.037885,189.076652 C149.037885,189.076652 144.761233,190.974449 139.895154,191.214978 C137.583519,191.368969 135.286478,191.694089 133.022907,192.187665 C131.762115,192.451982 130.659912,192.7163 129.869604,192.903965 C129.079295,193.09163 128.608811,193.231718 128.608811,193.231718 L116.513656,192.013216 L105.089868,190.85815 L98.9154185,190.022907 L97.2951542,186.496916 L95.7356828,183.10837 L95.2070485,181.950661 L95.9471366,169.842291 L115.427313,169.842291 C115.427313,169.842291 135.742731,170.899559 138.351542,170.899559 L138.943612,170.899559 C138.943612,170.899559 142.19207,169.599119 147.494273,172.797357 C148.1703,173.176498 148.877768,173.496627 149.608811,173.754185 C158.035242,176.902203 181.710132,180.993833 181.710132,180.993833 L197.040529,180.042291 C197.040529,180.042291 205.659912,176.902203 210.520705,174.832599 C212.140969,174.140088 213.346256,173.56652 213.668722,173.273128 C214.955947,172.081057 226.35859,161.746256 223.390308,171.605286 Z" id="Path" fill="#FFC1C7"></path>
                        <path d="M102.642291,181.744493 L103.580617,185.085463 L100.371806,186.82467 L97.2977974,186.486344 L95.738326,183.097797 L95.2096916,181.940088 L95.9497797,169.831718 L115.41674,169.831718 C111.354185,170.196476 102.642291,181.744493 102.642291,181.744493 Z" id="Path" fill="#000000" opacity="0.1"></path>
                        <path d="M102.285463,181.744493 L103.223789,185.085463 L100.017621,186.82467 L91.9110132,185.933921 L87.5444934,182.415859 C80.4079295,170.836123 71.7779736,170.785903 71.7779736,170.785903 C71.7779736,170.785903 72.8484581,169.223789 72.8035242,167.799119 C72.7585903,166.374449 74.3735683,162.721586 74.3735683,162.721586 L74.5268722,162.647577 C75.0713656,162.38326 76.9189427,161.468722 77.0352423,161.429075 C77.0352423,161.429075 113.688106,167.352423 114.401762,167.577093 C114.585962,167.653541 114.736853,167.793186 114.827313,167.970925 C115.242291,168.621145 115.427313,169.821145 115.427313,169.821145 C111.557709,169.464317 102.285463,181.744493 102.285463,181.744493 Z" id="Path" fill="#565988"></path>
                        <path d="M145.596476,132.290749 C144.519539,132.268174 143.442612,132.336256 142.377093,132.494273 C140.603524,132.782379 138.903965,133.456388 139.657269,135.023789 C141.081938,137.99207 132.055507,143.217621 132.055507,143.217621 L119.463436,151.295154 L111.623789,139.41674 L115.665198,129.795595 L126.946256,124.094273 L133.125991,121.128634 C133.125991,121.128634 135.573568,122.019383 137.72511,121.969163 C138.718943,121.948018 139.651982,121.725991 140.251982,121.128634 C142.14978,119.228194 145.596476,132.290749 145.596476,132.290749 Z" id="Path" fill="#FFC1C7"></path>
                        <path d="M145.596476,132.290749 C144.519539,132.268174 143.442612,132.336256 142.377093,132.494273 C139.402851,130.405329 137.63487,126.996639 137.640529,123.362115 C137.639242,122.896476 137.667493,122.431225 137.72511,121.969163 C138.718943,121.948018 139.651982,121.725991 140.251982,121.128634 C142.14978,119.228194 145.596476,132.290749 145.596476,132.290749 Z" id="Path" fill="#000000" opacity="0.1"></path>
                        <path d="M160.678414,123.362115 C160.679115,126.323192 159.503504,129.163271 157.410201,131.257565 C155.316899,133.351859 152.477377,134.528814 149.5163,134.529515 C148.998978,134.529689 148.482284,134.493476 147.970044,134.421145 C142.155065,133.615181 137.957542,128.443584 138.365011,122.587174 C138.77248,116.730764 143.645736,112.190281 149.5163,112.197357 C149.943693,112.198511 150.370725,112.222333 150.795595,112.268722 C156.428017,112.92215 160.67728,117.691917 160.678414,123.362115 Z" id="Path" fill="#FFC1C7"></path>
                        <path d="M210.562996,175.049339 C210.562996,176.466079 203.032599,179.344493 196.538326,181.564758 C191.983103,183.083591 187.19379,183.77903 182.394714,183.618502 C182.006763,183.598526 181.61793,183.633228 181.239648,183.721586 C179.45815,184.194714 156.298678,178.731278 156.298678,178.731278 C156.298678,178.731278 151.570044,176.537445 149.614097,173.748899 C158.040529,176.896916 181.715419,180.988546 181.715419,180.988546 L197.045815,180.037004 C197.045815,180.037004 205.665198,176.896916 210.525991,174.827313 C210.558414,174.89654 210.571214,174.973338 210.562996,175.049339 Z" id="Path" fill="#000000" opacity="0.1"></path>
                        <path d="M140.72511,136.118062 C140.72511,136.118062 142.387665,140.487225 144.525991,141.555066 C146.664317,142.622907 150.938326,146.899559 150.584141,152.481938 C150.584141,152.481938 149.870485,154.028194 152.127753,157.239648 C154.385022,160.451101 159.848458,167.452863 159.848458,167.452863 C159.848458,167.452863 171.010573,171.372687 174.573568,173.748899 L174.586784,173.748899 C177.388371,174.151274 180.141754,174.837627 182.804405,175.797357 C184.326872,176.325991 186.190308,176.836123 187.876652,176.836123 C191.55859,176.836123 210.562996,171.848458 210.562996,174.340969 C210.562996,175.760352 203.032599,178.638767 196.535683,180.859031 C191.980629,182.374094 187.19239,183.066823 182.394714,182.904846 C182.006788,182.886173 181.618136,182.920858 181.239648,183.00793 C179.45815,183.481057 156.296035,178.017621 156.296035,178.017621 C156.296035,178.017621 151.414097,175.762996 149.513656,172.900441 C147.613216,170.037885 142.747137,166.379736 142.747137,166.379736 C142.747137,166.379736 137.402643,157.353304 136.932159,155.214978 C136.932159,155.214978 134.201762,153.671366 127.073128,156.044934 C119.944493,158.418502 125.521586,150.697797 125.521586,150.697797 L133.480176,141.446696 L140.72511,136.118062 Z" id="Path" fill="#FFC1C7"></path>
                        <path d="M142.982379,139.419383 L140.500441,133.382379 C138.188149,134.850285 136.034724,136.5546 134.07489,138.467841 C131.103965,141.436123 129.084581,143.225551 127.659912,143.574449 C126.235242,143.923348 121.36652,146.402643 119.347137,141.306608 C117.327753,136.210573 118.157709,132.76652 120.05815,131.103965 C121.95859,129.44141 134.817621,121.622907 134.817621,121.622907 L133.128634,121.493392 C133.128634,121.493392 121.371806,125.608811 117.689868,123.729515 C117.689868,123.729515 111.155947,124.821145 109.731278,122.444934 C108.306608,120.068722 106.961233,119.693392 106.961233,119.693392 L98.3286344,131.352423 L101.418502,157.125991 L109.374449,157.125991 L117.92511,153.800881 L129.327753,152.849339 C129.327753,152.849339 133.604405,148.810573 134.199119,146.910132 C134.793833,145.009692 139.311013,138.82467 142.982379,139.419383 Z" id="Path" fill="#000000" opacity="0.1"></path>
                        <path d="M142.982379,139.067841 L140.500441,133.030837 C138.188149,134.498743 136.034724,136.203058 134.07489,138.1163 C131.103965,141.087225 129.084581,142.874009 127.659912,143.222907 C126.235242,143.571806 121.36652,146.051101 119.347137,140.955066 C117.327753,135.859031 118.157709,132.414978 120.05815,130.752423 C121.95859,129.089868 134.817621,121.622907 134.817621,121.622907 L133.128634,121.139207 C133.128634,121.139207 121.371806,125.251982 117.689868,123.372687 C117.689868,123.372687 111.155947,124.464317 109.731278,122.088106 C108.306608,119.711894 106.961233,119.336564 106.961233,119.336564 L98.3286344,130.995595 L101.418502,156.769163 L109.374449,156.769163 L117.92511,153.444053 L129.327753,152.492511 C129.327753,152.492511 133.604405,148.456388 134.199119,146.555947 C134.793833,144.655507 139.311013,138.467841 142.982379,139.067841 Z" id="Path" fill="#565988"></path>
                        <path d="M114.827313,167.976211 C114.689868,168.631718 114.578855,169.051982 114.578855,169.051982 C114.578855,169.051982 114.089868,168.872247 108.079295,170.032599 C102.068722,171.192952 96.0977974,170.032599 96.0977974,170.032599 C92.606832,169.627839 89.1518598,168.957168 85.7629956,168.026432 C80.5982379,166.556828 73.8264317,164.817621 74.3973568,163.004405 C74.4343612,162.898678 74.4713656,162.779736 74.5162996,162.663436 C75.060793,162.399119 76.90837,161.484581 77.0246696,161.444934 C77.0246696,161.444934 113.677533,167.368282 114.391189,167.592952 C114.577595,167.664645 114.732261,167.800564 114.827313,167.976211 Z" id="Path" fill="#000000" opacity="0.1"></path>
                        <path d="M140.500441,133.382379 L142.562115,138.042291 C142.562115,138.042291 139.390308,136.35859 135.335683,143.262555 C131.281057,150.16652 130.747137,151.147137 130.747137,151.147137 C130.747137,151.147137 127.897797,153.092511 128.611454,155.571806 C128.611454,155.571806 120.169163,158.479295 114.602643,156.557709 C114.602643,156.557709 113.355066,160.321586 113.489868,162.861674 C113.573014,164.217922 113.580073,165.577764 113.511013,166.934802 C113.511013,166.934802 115.096916,165.732159 109.081057,166.892511 C103.065198,168.052863 97.0995595,167.714537 97.0995595,167.714537 C93.8173154,167.17915 90.5680524,166.45817 87.3674009,165.555066 C82.2,164.085463 74.1832599,164.463436 74.7621145,162.647577 C75.3409692,160.831718 77.2572687,157.392952 77.2572687,157.392952 C77.2572687,157.392952 78.6370044,156.6 78.5788546,155.83348 C78.5207048,155.06696 81.1189427,152.849339 81.1189427,152.849339 C81.1189427,152.849339 82.7207048,151.514537 82.4986784,150.399119 C82.276652,149.2837 84.0581498,147.459912 84.0581498,147.459912 L87.4440529,140.825551 C87.4440529,140.825551 90.2933921,134.632599 92.2546256,134.365639 C94.215859,134.098678 97.8211454,128.397357 97.8211454,128.397357 C97.8211454,128.397357 104.23348,123.232599 104.278414,122.162115 C104.323348,121.09163 107.484581,119.177974 107.484581,119.177974 C107.484581,119.177974 107.994714,123.54978 112.242291,123.729515 C116.489868,123.909251 122.101322,123.729515 122.101322,123.729515 L133.120705,121.139207 C133.120705,121.139207 128.294273,125.503084 127.178855,125.814978 C126.063436,126.126872 122.711894,128.532159 121.004405,128.986784 C119.296916,129.44141 115.826432,131.772687 115.961233,135.103084 C116.096035,138.43348 117.253744,140.12511 117.253744,140.12511 C117.253744,140.12511 120.726872,146.73304 124.2,145.940088 C124.2,145.940088 128.080176,146.148899 129.634361,143.846696 C131.188546,141.544493 140.500441,133.382379 140.500441,133.382379 Z" id="Path" fill="#000000" opacity="0.1"></path>
                        <path d="M133.480176,120.771806 L133.178855,121.001762 L132.832599,121.266079 L126.948899,124.09163 L118.874009,126.351542 L113.764758,126.943612 L105.095154,120.935683 C105.095154,120.935683 106.096916,120 107.569163,118.821145 C107.807048,119.878414 108.777093,122.849339 112.25022,122.994714 C116.492511,123.177093 122.109251,122.994714 122.109251,122.994714 L133.25815,120.803524 L133.480176,120.771806 Z" id="Path" fill="#000000" opacity="0.1"></path>
                        <path d="M140.500441,133.025551 L142.562115,138.047577 C142.562115,138.047577 139.03348,136.009692 134.978855,142.913656 C130.924229,149.817621 130.392952,150.795595 130.392952,150.795595 C130.392952,150.795595 127.897797,153.097797 128.611454,155.577093 C128.611454,155.577093 120.903965,159.481057 115.337445,157.564758 C115.337445,157.564758 115.205286,159.882819 115.337445,162.420264 C115.469604,164.957709 114.581498,168.343612 114.581498,168.343612 C114.581498,168.343612 114.089868,168.16652 108.076652,169.324229 C102.063436,170.481938 96.0977974,169.324229 96.0977974,169.324229 C92.6067799,168.921121 89.151749,168.251322 85.7629956,167.320705 C80.5982379,165.851101 73.8264317,164.111894 74.3973568,162.298678 C74.9682819,160.485463 76.892511,157.04141 76.892511,157.04141 C76.892511,157.04141 78.2722467,156.248458 78.2299559,155.481938 C78.1876652,154.715419 80.7674009,152.497797 80.7674009,152.497797 C80.7674009,152.497797 82.3718062,151.176211 82.1471366,150.05022 C81.922467,148.924229 83.7066079,147.10837 83.7066079,147.10837 L87.092511,140.474009 C87.092511,140.474009 89.9418502,134.281057 91.9030837,134.014097 C93.8643172,133.747137 97.4696035,128.045815 97.4696035,128.045815 C97.4696035,128.045815 103.892511,122.865198 103.934802,121.794714 C103.977093,120.724229 107.143612,118.810573 107.143612,118.810573 C107.143612,118.810573 107.651101,123.182379 111.901322,123.362115 C116.151542,123.54185 121.762996,123.362115 121.762996,123.362115 L133.128634,121.128634 C133.128634,121.128634 127.948018,125.135683 126.835242,125.447577 C125.722467,125.759471 122.365639,128.164758 120.65815,128.619383 C118.950661,129.074009 115.477533,131.426432 115.609692,134.767401 C115.74185,138.10837 116.902203,139.789427 116.902203,139.789427 C116.902203,139.789427 120.37533,146.381498 123.851101,145.580617 C123.851101,145.580617 127.728634,145.786784 129.282819,143.487225 C130.837004,141.187665 140.500441,133.025551 140.500441,133.025551 Z" id="Path" fill="#E8F4FF"></path>
                        <path d="M105.940969,149.185903 C105.940969,149.185903 110.304846,157.292511 112.30837,158.172687 C114.311894,159.052863 113.912775,157.548899 113.912775,157.548899 C113.912775,157.548899 106.564758,150.962115 105.940969,149.185903 Z" id="Path" fill="#000000" opacity="0.1"></path>
                        <path d="M97.522467,155.333921 C97.522467,155.333921 101.799119,162.148018 104.960352,162.148018 L97.522467,155.333921 Z" id="Path" fill="#000000" opacity="0.1"></path>
                        <path d="M88.123348,146.915419 C88.123348,146.915419 93.1136564,162.681938 102.288106,163.929515 C102.288106,163.929515 90.3066079,155.111894 88.123348,146.915419 Z" id="Path" fill="#000000" opacity="0.1"></path>
                        <path d="M89.0140969,160.543612 C89.0140969,160.543612 97.2555066,167.090749 102.288106,166.112775 C102.288106,166.112775 93.692511,164.643172 89.0140969,160.543612 Z" id="Path" fill="#000000" opacity="0.1"></path>
                        <path d="M82.8977974,171.777093 C82.8977974,171.777093 91.1365639,178.324229 96.1718062,177.343612 C96.1718062,177.343612 87.5735683,175.874009 82.8977974,171.777093 Z" id="Path" fill="#000000" opacity="0.1"></path>
                        <path d="M85.0519824,175.493392 C85.0519824,175.493392 93.2907489,182.040529 98.323348,181.062555 C98.323348,181.062555 89.7277533,179.592952 85.0519824,175.493392 Z" id="Path" fill="#000000" opacity="0.1"></path>
                        <path d="M86.2969163,169.464317 C86.2969163,169.464317 94.5356828,176.003524 99.5682819,175.014978 C99.5682819,175.014978 90.9726872,173.553304 86.2969163,169.464317 Z" id="Path" fill="#000000" opacity="0.1"></path>
                        <polygon id="Path" fill="#000000" opacity="0.1" points="124.244934 130.702203 119.080176 137.339207 119.791189 138.674009"></polygon>
                        <path d="M160.678414,123.362115 C160.679115,126.323192 159.503504,129.163271 157.410201,131.257565 C155.316899,133.351859 152.477377,134.528814 149.5163,134.529515 C148.998978,134.529689 148.482284,134.493476 147.970044,134.421145 C148.134784,134.233152 148.272661,134.023223 148.379736,133.797357 C148.710132,132.87489 147.322467,131.912775 147.75859,131.029956 C147.98326,130.559471 148.588546,130.440529 149.109251,130.427313 C149.629956,130.414097 150.208811,130.427313 150.586784,130.067841 C151.022907,129.647577 150.962115,128.955066 151.073128,128.360352 C151.247577,127.456388 151.881938,126.703084 152.571806,126.087225 C153.261674,125.471366 154.03348,124.940088 154.628194,124.237004 C155.540088,123.153304 155.968282,121.736564 156.081938,120.32511 C156.155947,119.413216 156.081938,118.443172 155.600881,117.681938 C155.072247,116.865198 154.165639,116.405286 153.335683,115.903084 C152.563673,115.476057 151.891487,114.889471 151.363877,114.182379 C151.025551,113.685463 150.687225,112.911013 150.795595,112.281938 C156.423011,112.93478 160.670577,117.696962 160.678414,123.362115 Z" id="Path" fill="#000000" opacity="0.1"></path>
                        <path d="M166.8,123.909251 C166.756256,124.094611 166.685924,124.272667 166.591189,124.437885 C166.564758,124.485463 166.53304,124.535683 166.503965,124.585903 L166.342731,124.831718 C166.088602,125.149517 165.920241,125.527192 165.853744,125.928634 C165.822026,126.417621 166.088987,126.864317 166.263436,127.329515 L166.292511,127.411454 C166.316395,127.477265 166.336689,127.544324 166.353304,127.612335 C166.461052,128.071951 166.425069,128.553568 166.25022,128.99207 C166.059018,129.481418 165.776461,129.929921 165.417621,130.313656 C164.743612,131.040529 163.895154,131.590308 163.215859,132.309251 C162.70837,132.837885 162.298678,133.464317 161.796476,133.998238 C160.607048,135.256388 158.94185,135.977974 157.247577,136.321586 C155.921264,136.560542 154.574788,136.669428 153.227313,136.646696 L152.077533,136.646696 C151.897493,136.657428 151.717242,136.62949 151.548899,136.564758 C151.354721,136.434461 151.187002,136.268537 151.054626,136.075771 C150.362115,135.282819 149.204405,135.132159 148.147137,135.042291 C148.124827,134.838566 148.187993,134.634712 148.321586,134.479295 C148.492572,134.276638 148.638145,134.053841 148.755066,133.815859 C149.088106,132.890749 147.697797,131.931278 148.136564,131.043172 C148.177104,130.959735 148.232655,130.884472 148.300441,130.821145 C148.344713,130.776641 148.393425,130.736786 148.445815,130.702203 C148.763536,130.52372 149.122843,130.432525 149.487225,130.437885 C149.682819,130.437885 149.886344,130.437885 150.084581,130.414097 C150.3992,130.401711 150.700644,130.284483 150.940969,130.081057 C151.377093,129.666079 151.3163,128.970925 151.427313,128.378855 C151.601762,127.469604 152.236123,126.718943 152.925991,126.105727 C153.615859,125.492511 154.387665,124.95859 154.982379,124.255507 C155.894273,123.174449 156.322467,121.752423 156.436123,120.346256 C156.510132,119.434361 156.436123,118.461674 155.955066,117.703084 C155.495154,116.989427 154.739207,116.548018 154.001762,116.117181 L153.689868,115.932159 C153.117024,115.601876 152.591544,115.195541 152.127753,114.724229 C151.983606,114.548684 151.852003,114.363203 151.733921,114.169163 C151.403524,113.682819 151.075771,112.934802 151.157709,112.318943 C151.160887,112.277835 151.167967,112.237123 151.178855,112.197357 C151.334802,111.518062 152.006167,111.510132 152.643172,111.425551 C152.814978,111.404405 152.984141,111.385903 153.155947,111.37533 C153.409483,111.36079 153.663644,111.36079 153.917181,111.37533 C155.003324,111.416012 156.065349,111.7073 157.020264,112.226432 C157.374449,112.419383 157.712775,112.644053 158.077533,112.810573 C158.944493,113.199119 159.927753,113.249339 160.821145,113.534802 C162.629075,114.100441 164.032599,115.580617 164.923348,117.251101 C165.814097,118.921586 166.25815,120.785022 166.694273,122.62467 C166.823693,123.039851 166.859796,123.478496 166.8,123.909251 Z" id="Path" fill="#965D7B"></path>
                        <path d="M133.025551,192.177093 C132.970343,192.417501 132.881353,192.648875 132.761233,192.864317 C132.761233,192.864317 131.582379,192.906608 129.853744,192.893392 C127.493392,192.87489 124.120705,192.753304 121.395595,192.272247 C119.770611,192.038108 118.127955,191.94965 116.487225,192.00793 L105.063436,190.852863 L98.8889868,190.017621 L95.7171806,183.103084 C97.5515419,183.203524 99.1321586,183.132159 99.1321586,183.132159 C102.639648,179.807048 105.903965,180.340969 107.685463,181.784141 C109.46696,183.227313 112.794714,184.377093 113.029956,184.377093 C113.188546,184.377093 118.440529,184.488106 121.818502,184.556828 C124.435191,184.595769 127.001486,185.282294 129.288106,186.555066 C133.231718,188.759471 133.289868,191.064317 133.025551,192.177093 Z" id="Path" fill="#000000" opacity="0.1"></path>
                        <path d="M74.3709251,169.834361 L71.7779736,170.785903 C71.7779736,170.785903 64.5938326,165.843172 54.0819383,168.15859 C43.5700441,170.474009 44.2837004,176.651101 44.2837004,176.651101 C44.2837004,176.651101 44.6986784,184.221145 47.7198238,186.819383 C50.7409692,189.417621 52.6493392,189.536564 54.3700441,191.497797 C56.0907489,193.459031 65.0008811,194.347137 65.0008811,194.347137 C65.0008811,194.347137 82.6387665,195.237885 92.1409692,194.347137 C101.643172,193.456388 105.93304,193.456388 105.93304,193.456388 C105.93304,193.456388 116.368282,192.150661 121.059912,192.980617 C125.751542,193.810573 132.404405,193.57533 132.404405,193.57533 C132.404405,193.57533 134.365639,190.329515 128.944493,187.260793 C126.658499,185.986478 124.091808,185.299847 121.47489,185.262555 C118.099559,185.191189 112.847577,185.082819 112.686344,185.082819 C112.448458,185.082819 109.123348,183.93304 107.34185,182.489868 C105.560352,181.046696 102.296035,180.510132 98.7911894,183.835242 C98.7911894,183.835242 91.0123348,184.19207 89.9418502,182.23348 C88.8713656,180.27489 83.3497797,174.126872 83.3497797,174.126872 L74.3709251,169.834361 Z" id="Path" fill="#FFC1C7"></path>
                        <path d="M87.277533,181.501322 C87.277533,181.501322 87.2193833,182.577093 89.6246696,182.4 C91.8502203,182.23348 83.0325991,174.293392 83.0325991,174.293392 L74.045815,169.998238 L71.4528634,170.952423 C71.4528634,170.952423 80.1515419,169.921586 87.277533,181.501322 Z" id="Path" fill="#000000" opacity="0.1"></path>
                        <path d="M87.6343612,181.144493 C87.6343612,181.144493 87.5762115,182.220264 89.9814978,182.043172 C92.2070485,181.879295 83.3894273,173.936564 83.3894273,173.936564 L74.4026432,169.64141 L71.8070485,170.595595 C71.8070485,170.595595 80.50837,169.564758 87.6343612,181.144493 Z" id="Path" fill="#565988"></path>
                        <path d="M62.0986784,173.801762 C62.0986784,173.801762 64.6519824,172.496035 68.3947137,174.129515 C69.7310763,174.704967 71.1073642,175.182869 72.5127753,175.559471 C74.7664414,176.167837 76.9297068,177.071716 78.9462555,178.247577 C81.5524229,179.762115 85.0889868,181.580617 87.0555066,181.580617" id="Path" stroke="#000000" opacity="0.1"></path>
                        <path d="M152.791189,136.625551 C152.611076,136.637911 152.430475,136.609918 152.262555,136.543612 C152.067193,136.41477 151.899218,136.248591 151.768282,136.054626 C151.075771,135.261674 149.904846,135.111013 148.860793,135.023789 C148.776211,134.563877 149.307489,134.230837 149.466079,133.797357 C149.801762,132.872247 148.408811,131.912775 148.847577,131.027313 C149.07489,130.559471 149.680176,130.440529 150.200881,130.427313 C150.721586,130.414097 151.300441,130.427313 151.675771,130.065198 C152.111894,129.647577 152.051101,128.952423 152.164758,128.360352 C152.336564,127.453744 152.970925,126.700441 153.660793,126.087225 C154.350661,125.474009 155.12511,124.940088 155.719824,124.237004 C156.629075,123.155947 157.057269,121.736564 157.173568,120.327753 C157.247577,119.413216 157.173568,118.443172 156.689868,117.671366 C156.161233,116.857269 155.254626,116.397357 154.42467,115.892511 C153.652659,115.465484 152.980474,114.878898 152.452863,114.171806 C152.103965,113.659031 151.74978,112.85022 151.897797,112.202643 C152.045815,111.555066 152.727753,111.515419 153.364758,111.430837 C153.552423,111.404405 153.737445,111.388546 153.927753,111.377974 C153.501475,111.358572 153.074317,111.37626 152.651101,111.430837 C152.014097,111.515419 151.329515,111.523348 151.184141,112.202643 C151.038767,112.881938 151.390308,113.659031 151.74185,114.171806 C152.26946,114.878898 152.941646,115.465484 153.713656,115.892511 C154.519824,116.39207 155.434361,116.865198 155.962996,117.65815 C156.457269,118.429956 156.520705,119.4 156.446696,120.314537 C156.330396,121.723348 155.918062,123.142731 154.992952,124.223789 C154.398238,124.932159 153.626432,125.463436 152.936564,126.074009 C152.246696,126.684581 151.614978,127.440529 151.437885,128.347137 C151.324229,128.939207 151.385022,129.634361 150.951542,130.051982 C150.576211,130.411454 149.994714,130.400881 149.474009,130.414097 C148.953304,130.427313 148.348018,130.546256 148.120705,131.014097 C147.692511,131.899559 149.07489,132.864317 148.74185,133.784141 C148.580617,134.222907 148.051982,134.550661 148.133921,135.010573 C149.191189,135.097797 150.359471,135.240529 151.04141,136.04141 C151.170887,136.236579 151.339132,136.403025 151.535683,136.530396 C151.703436,136.597316 151.884177,136.625331 152.064317,136.612335 C152.447577,136.612335 152.83348,136.612335 153.219383,136.612335 L152.791189,136.625551 Z" id="Path" fill="#000000" opacity="0.1"></path>
                        <path d="M166.400881,129.391189 C166.506608,129.052863 166.625551,128.67489 166.74185,128.273128 C167.083505,127.210136 167.342427,126.12231 167.5163,125.019383 C167.193486,124.838878 166.853478,124.69101 166.501322,124.577974 C166.530396,124.527753 166.562115,124.477533 166.588546,124.429956 L166.350661,124.527753 C166.350661,124.527753 166.350661,124.638767 166.350661,124.823789 C166.332159,125.325991 166.295154,126.388546 166.271366,127.321586 C166.271366,127.337445 166.271366,127.350661 166.271366,127.363877 C166.252863,128.101322 166.242291,128.754185 166.271366,128.986784 L166.400881,129.391189 Z" id="Path" fill="#565988"></path>
                        <ellipse id="Oval" fill="#0079FF" opacity="0.1" cx="242.537445" cy="186.518062" rx="11.5030837" ry="1.58061674"></ellipse>
                        <path d="M247.202643,184.548899 C247.686344,184.099559 248.138326,183.570925 248.278414,182.925991 C248.418502,182.281057 248.140969,181.506608 247.52511,181.271366 C246.835242,181.007048 246.097797,181.488106 245.540088,181.969163 C244.982379,182.45022 244.340088,183.005286 243.60793,182.902203 C244.370621,182.206879 244.712736,181.162475 244.509251,180.150661 C244.474872,179.942962 244.383349,179.748934 244.244934,179.590308 C243.861674,179.180617 243.16652,179.357709 242.709251,179.680176 C241.25022,180.705727 240.843172,182.688106 240.835242,184.472247 C240.687225,183.827313 240.811454,183.150661 240.808811,182.497797 C240.806167,181.844934 240.623789,181.104846 240.066079,180.750661 C239.71877,180.564662 239.328571,180.473494 238.934802,180.486344 C238.279295,180.462555 237.54978,180.525991 237.100441,181.014978 C236.545374,181.609692 236.688106,182.600881 237.174449,183.26696 C237.660793,183.93304 238.392952,184.324229 239.072247,184.786784 C239.615449,185.1116 240.07882,185.554196 240.428194,186.081938 C240.468473,186.155438 240.502087,186.232397 240.528634,186.311894 L244.64141,186.311894 C245.571785,185.844164 246.43357,185.250965 247.202643,184.548899 Z" id="Path" fill="#0079FF"></path>
                        <ellipse id="Oval" fill="#0079FF" opacity="0.1" cx="279.317181" cy="193.303084" rx="11.5030837" ry="1.58061674"></ellipse>
                        <path d="M283.982379,191.333921 C284.466079,190.884581 284.918062,190.355947 285.05815,189.711013 C285.198238,189.066079 284.920705,188.29163 284.304846,188.056388 C283.614978,187.79207 282.877533,188.270485 282.319824,188.754185 C281.762115,189.237885 281.119824,189.790308 280.387665,189.687225 C281.153698,188.992744 281.498902,187.947096 281.296916,186.93304 C281.261937,186.726316 281.170459,186.533296 281.032599,186.37533 C280.649339,185.965639 279.954185,186.140088 279.496916,186.465198 C278.037885,187.490749 277.630837,189.473128 277.622907,191.254626 C277.47489,190.612335 277.599119,189.93304 277.596476,189.282819 C277.593833,188.632599 277.411454,187.889868 276.853744,187.535683 C276.506524,187.349449 276.116261,187.258265 275.722467,187.271366 C275.06696,187.247577 274.337445,187.313656 273.888106,187.8 C273.33304,188.394714 273.475771,189.385903 273.962115,190.051982 C274.448458,190.718062 275.180617,191.109251 275.859912,191.571806 C276.40361,191.89597 276.867114,192.338693 277.215859,192.86696 C277.257232,192.939917 277.290894,193.016985 277.3163,193.096916 L281.429075,193.096916 C282.356092,192.627599 283.215049,192.03451 283.982379,191.333921 Z" id="Path" fill="#0079FF"></path>
                        <ellipse id="Oval" fill="#0079FF" opacity="0.1" cx="256.30837" cy="207.568282" rx="11.5030837" ry="1.58061674"></ellipse>
                        <path d="M260.973568,205.599119 C261.457269,205.14978 261.909251,204.621145 262.049339,203.976211 C262.189427,203.331278 261.914537,202.559471 261.298678,202.324229 C260.606167,202.059912 259.868722,202.538326 259.311013,203.019383 C258.753304,203.500441 258.111013,204.055507 257.378855,203.952423 C258.144439,203.258773 258.489647,202.214119 258.288106,201.200881 C258.253726,200.993182 258.162204,200.799154 258.023789,200.640529 C257.640529,200.230837 256.948018,200.40793 256.488106,200.730396 C255.029075,201.755947 254.622026,203.738326 254.614097,205.522467 C254.466079,204.877533 254.590308,204.200881 254.587665,203.548018 C254.585022,202.895154 254.402643,202.155066 253.844934,201.800881 C253.498585,201.614865 253.109229,201.523681 252.7163,201.536564 C252.05815,201.512775 251.328634,201.578855 250.881938,202.065198 C250.324229,202.662555 250.469604,203.651101 250.953304,204.317181 C251.437004,204.98326 252.174449,205.374449 252.851101,205.837004 C253.394744,206.161241 253.858233,206.603949 254.207048,207.132159 C254.249539,207.204552 254.283256,207.281747 254.307489,207.362115 L258.420264,207.362115 C259.347855,206.893762 260.206938,206.300586 260.973568,205.599119 Z" id="Path" fill="#0079FF"></path>
                        <ellipse id="Oval" fill="#0079FF" opacity="0.1" cx="23.0088106" cy="183.938326" rx="11.5030837" ry="1.58061674"></ellipse>
                        <path d="M27.6713656,181.969163 C28.1550661,181.519824 28.6096916,180.991189 28.7471366,180.346256 C28.8845815,179.701322 28.6123348,178.926872 27.9964758,178.69163 C27.3066079,178.427313 26.569163,178.905727 26.0088106,179.389427 C25.4484581,179.873128 24.8088106,180.425551 24.076652,180.322467 C24.8435989,179.628582 25.1889779,178.582405 24.9859031,177.568282 C24.9500133,177.361846 24.8586459,177.169061 24.7215859,177.010573 C24.338326,176.600881 23.6431718,176.77533 23.1832599,177.100441 C21.7242291,178.125991 21.3171806,180.10837 21.3092511,181.889868 C21.1638767,181.247577 21.2881057,180.568282 21.2828194,179.918062 C21.277533,179.267841 21.0977974,178.52511 20.5427313,178.170925 C20.1954221,177.984927 19.8052226,177.893759 19.4114537,177.906608 C18.7559471,177.882819 18.0237885,177.948899 17.5770925,178.435242 C17.0193833,179.029956 17.1647577,180.021145 17.6484581,180.687225 C18.1321586,181.353304 18.8696035,181.744493 19.5488987,182.207048 C20.0925971,182.531212 20.5561005,182.973935 20.9048458,183.502203 C20.9451248,183.575702 20.9787393,183.652661 21.0052863,183.732159 L25.1259912,183.732159 C26.0502249,183.262226 26.9064809,182.66916 27.6713656,181.969163 Z" id="Path" fill="#0079FF"></path>
                        <ellipse id="Oval" fill="#0079FF" opacity="0.1" cx="11.5030837" cy="206.355066" rx="11.5030837" ry="1.58061674"></ellipse>
                        <path d="M16.1682819,204.385903 C16.6519824,203.936564 17.1039648,203.40793 17.2440529,202.762996 C17.384141,202.118062 17.1092511,201.343612 16.4933921,201.10837 C15.8008811,200.844053 15.0634361,201.322467 14.5057269,201.806167 C13.9480176,202.289868 13.3057269,202.842291 12.5735683,202.739207 C13.3444292,202.047528 13.6947926,201.001458 13.4960352,199.985022 C13.4610564,199.778298 13.3695777,199.585278 13.2317181,199.427313 C12.8484581,199.017621 12.1559471,199.19207 11.6960352,199.517181 C10.2370044,200.542731 9.82995595,202.52511 9.82202643,204.309251 C9.67400881,203.664317 9.79823789,202.987665 9.79559471,202.334802 C9.79295154,201.681938 9.61057269,200.94185 9.05286344,200.587665 C8.70696828,200.400452 8.31728364,200.309191 7.92422907,200.323348 C7.2660793,200.296916 6.53656388,200.362996 6.08986784,200.851982 C5.53215859,201.446696 5.67753304,202.437885 6.16123348,203.103965 C6.64493392,203.770044 7.38237885,204.161233 8.05903084,204.623789 C8.60328688,204.947218 9.06694032,205.390084 9.41497797,205.918943 C9.45746806,205.991336 9.49118566,206.068531 9.5154185,206.148899 L13.6255507,206.148899 C14.5488564,205.678762 15.4042123,205.085703 16.1682819,204.385903 Z" id="Path" fill="#0079FF"></path>
                    </g>
                </g>
            </g>
        </g>
    </g>
</svg>