<?xml version="1.0" encoding="UTF-8"?>
<svg class="threeIcon" viewBox="0 0 310 260" version="1.1" xmlns="http://www.w3.org/2000/svg" xmlns:xlink="http://www.w3.org/1999/xlink">
    <!-- Generator: Sketch 52.4 (67378) - http://www.bohemiancoding.com/sketch -->
    <title>undraw_Security_on_s9ym (1)</title>
    <desc>Created with Sketch.</desc>
    <defs>
        <linearGradient x1="50%" y1="100%" x2="50%" y2="0%" id="linearGradient-1">
            <stop stop-color="#808080" stop-opacity="0.25" offset="0%"></stop>
            <stop stop-color="#808080" stop-opacity="0.12" offset="54%"></stop>
            <stop stop-color="#808080" stop-opacity="0.1" offset="100%"></stop>
        </linearGradient>
        <linearGradient x1="0%" y1="50.0037512%" x2="100%" y2="50.0037512%" id="linearGradient-2">
            <stop stop-color="#808080" stop-opacity="0.25" offset="0%"></stop>
            <stop stop-color="#808080" stop-opacity="0.12" offset="54%"></stop>
            <stop stop-color="#808080" stop-opacity="0.1" offset="100%"></stop>
        </linearGradient>
    </defs>
    <g id="About/Team" stroke="none" stroke-width="1" fill="none" fill-rule="evenodd">
        <g id="Customers" transform="translate(-948.000000, -1115.000000)">
            <g id="threeSection" transform="translate(196.000000, 772.000000)">
                <g id="undraw_Security_on_s9ym-(1)" transform="translate(752.000000, 343.000000)">
                    <rect id="Rectangle" fill="#B0BEC5" x="52.4548837" y="189.197326" width="25.8093023" height="2.58093023"></rect>
                    <rect id="Rectangle" fill="#B0BEC5" x="61.8269767" y="220.557791" width="25.8093023" height="2.58093023"></rect>
                    <rect id="Rectangle" fill="#B0BEC5" x="82.4744186" y="235.718953" width="13.2254651" height="2.90174419"></rect>
                    <rect id="Rectangle" fill="#B0BEC5" x="89.2511628" y="251.525349" width="13.2254651" height="1.93569767"></rect>
                    <g id="Group" opacity="0.5" transform="translate(55.151163, 0.000000)" fill="url(#linearGradient-1)">
                        <path d="M100.353488,0.0180232558 L0.144186047,61.6863953 C0.144186047,61.6863953 0.144186047,188.876512 100.353488,258.251628 C200.562791,188.876512 200.562791,61.6863953 200.562791,61.6863953 L100.353488,0.0180232558 Z" id="Path"></path>
                    </g>
                    <path d="M155.504651,3.875 L58.2872093,63.7013953 C58.2872093,63.7013953 58.2872093,187.092209 155.504651,254.387442 C252.722093,187.081395 252.722093,63.7013953 252.722093,63.7013953 L155.504651,3.875 Z" id="Path" fill="#FFFFFF"></path>
                    <path d="M156.085,3.875 L154.423256,4.89511628 L154.423256,253.226744 C154.974767,253.616047 155.526279,254.008953 156.085,254.394651 C253.298837,187.092209 253.298837,63.7013953 253.298837,63.7013953 L156.085,3.875 Z" id="Path" fill="#0079FF" opacity="0.04"></path>
                    <g id="Group" opacity="0.7" transform="translate(124.000000, 108.860465)" fill="url(#linearGradient-2)">
                        <polygon id="Path" points="7.96988372 16.2461628 26.2959302 33.0438372 49.0160465 0.270348837 58.1790698 7.90860465 26.2959302 48.3167442 0.331627907 19.2993023"></polygon>
                    </g>
                    <polygon id="Path" fill="#3AD29F" points="136.295465 126.11593 151.161047 139.741512 172.223023 108.770349 179.655814 114.966744 151.161047 152.130698 130.09907 128.592326"></polygon>
                    <path d="M82.1860465,184.536512 C82.1860465,184.536512 65.4965116,186.475814 70.5430233,196.568837 C73.745519,203.133645 76.3129022,209.989657 78.2101163,217.043256 L87.037907,215.197674 C87.037907,215.197674 83.545,198.702791 80.4413953,196.763488 L88.7861628,195.209884 L82.1860465,184.536512 Z" id="Path" fill="#FDA57D"></path>
                    <path d="M80.4413953,196.763488 L88.7861628,195.209884 L82.1860465,184.536512 C82.1860465,184.536512 81.9913953,184.55814 81.6525581,184.612209 L88.205814,195.209884 L79.8610465,196.763488 C82.9682558,198.702791 86.4611628,215.197674 86.4611628,215.197674 L78.1704651,216.927907 L78.202907,217.043256 L87.0306977,215.197674 C87.0306977,215.197674 83.545,198.702791 80.4413953,196.763488 Z" id="Path" fill="#000000" opacity="0.05"></path>
                    <path d="M83.5197674,213.330465 C83.5197674,213.330465 78.3651163,217.028837 70.5430233,216.733256 C70.5430233,216.733256 66.3832558,218.625698 72.2696512,220.132442 C78.1560465,221.639186 87.6543023,220.575814 88.4004651,219.411512 C89.1466279,218.247209 88.0904651,214.314535 86.3530233,212.703256 C84.6155814,211.091977 83.5197674,213.330465 83.5197674,213.330465 Z" id="Path" fill="#0079FF"></path>
                    <path d="M97.1309302,208.21186 C97.1309302,208.21186 96.7416279,215.781628 99.4595349,221.213837 L101.398837,247.416047 L107.609651,247.416047 C107.609651,247.416047 107.609651,234.605116 110.522209,227.813953 C113.434767,221.022791 108.968605,213.453023 108.968605,213.453023 L108.579302,205.688605 L97.1309302,208.21186 Z" id="Path" fill="#FDA57D"></path>
                    <circle id="Oval" fill="#FDA57D" cx="101.01314" cy="127.089186" r="7.95546512"></circle>
                    <rect id="Rectangle" fill="#FDA57D" x="95.5773256" y="131.166047" width="9.70372093" height="8.73406977"></rect>
                    <path d="M105.281047,245.47314 C105.281047,245.47314 99.4595349,247.996395 91.8897674,246.057093 C91.8897674,246.057093 87.4272093,247.026744 92.8594186,249.744651 C98.2916279,252.462558 107.804302,253.432209 108.773953,252.458953 C109.743605,251.485698 109.552558,247.412442 108.193605,245.47314 C106.834651,243.533837 105.281047,245.47314 105.281047,245.47314 Z" id="Path" fill="#0079FF"></path>
                    <path d="M80.5387209,155.717326 L69.1011628,185.214186 C69.1011628,185.214186 60.367093,187.542791 64.8332558,191.814302 C64.8332558,191.814302 64.0546512,187.737442 70.2654651,188.901744 C70.2654651,188.901744 72.0137209,191.814302 72.0137209,192.783953 C72.0137209,193.753605 74.007093,189.539767 73.2032558,187.477907 C75.2766873,181.400207 78.5646987,175.807767 82.8673256,171.040698 C82.8673256,171.040698 87.719186,162.501279 87.5245349,156.679767 L80.5387209,155.717326 Z" id="Path" fill="#FDA57D"></path>
                    <path d="M118.964302,145.235 C118.964302,145.235 125.175116,148.147558 128.278721,147.177907 C130.477558,146.489419 132.871047,142.102558 134.082209,139.60814 C134.639722,138.450301 135.748072,137.655711 137.023605,137.499419 C139.330581,137.22186 142.563953,137.250698 141.67,139.81 C140.311047,143.692209 135.848488,144.856512 135.848488,144.856512 L129.443023,153.774419 L118.185698,153.774419 L118.964302,145.235 Z" id="Path" fill="#FDA57D"></path>
                    <circle id="Oval" fill="#3D213C" cx="99.5568605" cy="126.411512" r="8.15011628"></circle>
                    <ellipse id="Oval" fill="#3D213C" cx="103.824767" cy="119.133721" rx="6.01616279" ry="3.3955814"></ellipse>
                    <polygon id="Path" fill="#000000" opacity="0.05" points="97.1633721 211.153256 97.1633721 212.130116 108.828023 210.637791 108.828023 209.523953"></polygon>
                    <polygon id="Path" fill="#000000" opacity="0.05" points="80.8595349 184.745581 80.0773256 184.904186 83.844186 196.12907 84.3163953 196.042558"></polygon>
                    <polygon id="Path" fill="#000000" opacity="0.05" points="122.165233 146.478605 122.936628 146.712907 123.185349 153.774419 122.165233 153.774419"></polygon>
                    <polygon id="Path" fill="#000000" opacity="0.05" points="80.1818605 156.629302 79.9259302 157.296163 86.8180233 161.607326 87.0126744 160.853953"></polygon>
                    <path d="M88.1553488,180.286628 L87.0126744,180.740814 C87.0126744,180.740814 106.149767,190.015581 112.457907,181.890698 L112.248837,181.169767 C112.248837,181.169767 106.448953,188.941395 88.1553488,180.286628 Z" id="Path" fill="#000000" opacity="0.05"></path>
                    <path d="M59.5812791,17.287907 C58.9730926,17.0112186 58.6645619,16.3262805 58.8603488,15.6874419 C58.8750937,15.63932 58.8847588,15.5897863 58.889186,15.5396512 C58.9080804,15.2466902 58.7321384,14.9761612 58.4566836,14.874634 C58.1812288,14.7731069 57.8718015,14.8647385 57.6960465,15.0998837 C57.666457,15.139809 57.6422202,15.1834354 57.6239535,15.2296512 C57.354946,15.8460905 56.6671662,16.1636465 56.0234884,15.9686047 C55.9758234,15.9521 55.926071,15.9423922 55.8756977,15.9397674 C55.5824632,15.9117256 55.3058696,16.080447 55.1966121,16.354008 C55.0873545,16.6275689 55.1716158,16.9404122 55.4034884,17.122093 C55.4434137,17.1516825 55.48704,17.1759194 55.5332558,17.194186 C56.1496951,17.4631935 56.4672511,18.1509734 56.2722093,18.7946512 C56.2570779,18.8426756 56.2474045,18.8922517 56.2433721,18.9424419 C56.2244777,19.2354028 56.4004198,19.5059319 56.6758746,19.607459 C56.9513293,19.7089861 57.2607566,19.6173545 57.4365116,19.3822093 C57.4661012,19.342284 57.490338,19.2986577 57.5086047,19.2524419 C57.7776121,18.6360026 58.465392,18.3184466 59.1090698,18.5134884 C59.1571917,18.5282333 59.2067254,18.5378984 59.2568605,18.5423256 C59.5498214,18.56122 59.8203505,18.3852779 59.9218776,18.1098231 C60.0234048,17.8343683 59.9317731,17.5249411 59.6966279,17.349186 C59.6606555,17.3244037 59.6219515,17.3038422 59.5812791,17.287907 Z" id="Path" fill="#4D8AF0" opacity="0.5"></path>
                    <path d="M6.95337209,134.43907 C6.33814442,134.168826 6.02110335,133.482162 6.2144186,132.838605 C6.2291635,132.790483 6.23882861,132.740949 6.24325581,132.690814 C6.26215021,132.397853 6.08620814,132.127324 5.81075335,132.025797 C5.53529856,131.92427 5.22587128,132.015901 5.05011628,132.251047 C5.02052675,132.290972 4.99628992,132.334598 4.97802326,132.380814 C4.70901578,132.997253 4.02123595,133.314809 3.37755814,133.119767 C3.32989313,133.103263 3.28014073,133.093555 3.22976744,133.09093 C2.94001359,133.072076 2.6716823,133.243889 2.56755753,133.514944 C2.46343276,133.785999 2.54772523,134.093272 2.7755814,134.273256 C2.81550672,134.302845 2.85913303,134.327082 2.90534884,134.345349 C3.51474375,134.620832 3.82376949,135.306869 3.62627907,135.945814 C3.61114763,135.993838 3.60147424,136.043415 3.59744186,136.093605 C3.57854747,136.386566 3.75448953,136.657095 4.02994432,136.758622 C4.30539911,136.860149 4.61482639,136.768517 4.7905814,136.533372 C4.82017092,136.493447 4.84440776,136.44982 4.86267442,136.403605 C5.13168189,135.787165 5.81946173,135.469609 6.46313953,135.664651 C6.51126144,135.679396 6.56079512,135.689061 6.61093023,135.693488 C6.90389116,135.712383 7.17442024,135.536441 7.27594738,135.260986 C7.37747452,134.985531 7.28584291,134.676104 7.05069767,134.500349 C7.02040663,134.476691 6.98779855,134.45616 6.95337209,134.43907 Z" id="Path" fill="#4D8AF0" opacity="0.5"></path>
                    <circle id="Oval" fill="#F55F44" opacity="0.5" cx="269.772093" cy="91.5581395" r="2.1627907"></circle>
                    <circle id="Oval" fill="#F55F44" opacity="0.5" cx="43.7604651" cy="246.197674" r="2.1627907"></circle>
                    <circle id="Oval" fill="#F55F44" opacity="0.5" cx="306.539535" cy="174.825581" r="2.1627907"></circle>
                    <path d="M253.871977,27.7413953 C253.256749,27.4711519 252.939708,26.7844874 253.133023,26.1409302 C253.147768,26.0928083 253.157433,26.0432746 253.16186,25.9931395 C253.180755,25.7001786 253.004813,25.4296495 252.729358,25.3281224 C252.453903,25.2265952 252.144476,25.3182269 251.968721,25.5533721 C251.939131,25.5932974 251.914895,25.6369237 251.896628,25.6831395 C251.62762,26.2995788 250.939841,26.6171348 250.296163,26.422093 C250.248498,26.4055884 250.198745,26.3958806 250.148372,26.3932558 C249.858618,26.3744021 249.590287,26.5462151 249.486162,26.81727 C249.382037,27.088325 249.46633,27.3955972 249.694186,27.5755814 C249.734111,27.6051709 249.777738,27.6294078 249.823953,27.6476744 C250.440393,27.9166819 250.757949,28.6044617 250.562907,29.2481395 C250.547776,29.296164 250.538102,29.3457401 250.53407,29.3959302 C250.515175,29.6888912 250.691117,29.9594202 250.966572,30.0609474 C251.242027,30.1624745 251.551454,30.0708429 251.727209,29.8356977 C251.756799,29.7957723 251.781036,29.752146 251.799302,29.7059302 C252.06831,29.0894909 252.75609,28.7719349 253.399767,28.9669767 C253.447889,28.9817216 253.497423,28.9913867 253.547558,28.995814 C253.840519,29.0147083 254.111048,28.8387663 254.212575,28.5633115 C254.314102,28.2878567 254.222471,27.9784294 253.987326,27.8026744 C253.951353,27.7778921 253.912649,27.7573306 253.871977,27.7413953 Z" id="Path" fill="#4D8AF0" opacity="0.5"></path>
                    <path d="M289.918488,254.113488 C289.303261,253.843245 288.98622,253.15658 289.179535,252.513023 C289.19428,252.464901 289.203945,252.415368 289.208372,252.365233 C289.227266,252.072272 289.051324,251.801743 288.77587,251.700215 C288.500415,251.598688 288.190988,251.69032 288.015233,251.925465 C287.985643,251.96539 287.961406,252.009017 287.94314,252.055233 C287.667656,252.664627 286.981619,252.973653 286.342674,252.776163 C286.295009,252.759658 286.245257,252.74995 286.194884,252.747326 C285.894867,252.715377 285.61109,252.889943 285.504316,253.172131 C285.397543,253.454319 285.494679,253.773015 285.740698,253.947674 C285.780623,253.977264 285.824249,254.001501 285.870465,254.019767 C286.486904,254.288775 286.80446,254.976555 286.609419,255.620233 C286.594287,255.668257 286.584614,255.717833 286.580581,255.768023 C286.561687,256.060984 286.737629,256.331513 287.013084,256.43304 C287.288539,256.534568 287.597966,256.442936 287.773721,256.207791 C287.80331,256.167865 287.827547,256.124239 287.845814,256.078023 C288.114821,255.461584 288.802601,255.144028 289.446279,255.33907 C289.494401,255.353815 289.543935,255.36348 289.59407,255.367907 C289.887031,255.386801 290.15756,255.210859 290.259087,254.935405 C290.360614,254.65995 290.268982,254.350522 290.033837,254.174767 C289.997865,254.149985 289.959161,254.129424 289.918488,254.113488 Z" id="Path" fill="#4D8AF0" opacity="0.5"></path>
                    <path d="M4.43011628,65.9506977 C3.8148886,65.6804543 3.49784754,64.9937897 3.69116279,64.3502326 C3.70590769,64.3021107 3.7155728,64.252577 3.72,64.2024419 C3.73889439,63.9094809 3.56295233,63.6389519 3.28749754,63.5374247 C3.01204275,63.4358976 2.70261547,63.5275292 2.52686047,63.7626744 C2.49727094,63.8025997 2.4730341,63.8462261 2.45476744,63.8924419 C2.18575997,64.5088812 1.49798013,64.8264372 0.854302326,64.6313953 C0.806637312,64.6148907 0.756884917,64.6051829 0.706511628,64.6025581 C0.416757773,64.5837044 0.148426486,64.7555174 0.0443017144,65.0265724 C-0.0598230576,65.2976273 0.0244694163,65.6048995 0.252325581,65.7848837 C0.29225091,65.8144732 0.335877215,65.8387101 0.382093023,65.8569767 C0.991487936,66.1324598 1.30051367,66.8184969 1.10302326,67.4574419 C1.08789182,67.5054663 1.07821842,67.5550424 1.07418605,67.6052326 C1.05529165,67.8981935 1.23123372,68.1687226 1.50668851,68.2702497 C1.7821433,68.3717768 2.09157058,68.2801452 2.26732558,68.045 C2.29691511,68.0050747 2.32115194,67.9614484 2.3394186,67.9152326 C2.60842608,67.2987933 3.29620591,66.9812373 3.93988372,67.1762791 C3.98800563,67.191024 4.03753931,67.2006891 4.08767442,67.2051163 C4.38063534,67.2240107 4.65116442,67.0480686 4.75269156,66.7726138 C4.85421871,66.497159 4.76258709,66.1877317 4.52744186,66.0119767 C4.49715081,65.9883187 4.46454274,65.9677877 4.43011628,65.9506977 Z" id="Path" fill="#4D8AF0" opacity="0.5"></path>
                    <circle id="Oval" fill="#47E6B1" opacity="0.5" cx="28.6209302" cy="102.372093" r="2.1627907"></circle>
                    <circle id="Oval" fill="#47E6B1" opacity="0.5" cx="307.62093" cy="119.674419" r="2.1627907"></circle>
                    <g id="Group" opacity="0.5" transform="translate(207.627907, 0.000000)" fill="#47E6B1">
                        <rect id="Rectangle" x="2.66744186" y="0" width="1.08139535" height="6.12790698"></rect>
                        <polygon id="Rectangle" transform="translate(3.208140, 3.063953) rotate(90.000000) translate(-3.208140, -3.063953) " points="2.66744186 4.4408921e-16 3.74883721 4.4408921e-16 3.74883721 6.12790698 2.66744186 6.12790698"></polygon>
                    </g>
                    <g id="Group" opacity="0.5" transform="translate(211.593023, 240.069767)" fill="#47E6B1">
                        <rect id="Rectangle" x="2.66744186" y="0" width="1.08139535" height="6.12790698"></rect>
                        <polygon id="Rectangle" transform="translate(3.208140, 3.063953) rotate(90.000000) translate(-3.208140, -3.063953) " points="2.66744186 1.83315895e-15 3.74883721 1.83315895e-15 3.74883721 6.12790698 2.66744186 6.12790698"></polygon>
                    </g>
                    <g id="Group" opacity="0.5" transform="translate(6.848837, 253.046512)" fill="#47E6B1">
                        <rect id="Rectangle" x="2.66744186" y="0" width="1.08139535" height="6.12790698"></rect>
                        <polygon id="Rectangle" transform="translate(3.208140, 3.063953) rotate(90.000000) translate(-3.208140, -3.063953) " points="2.66744186 1.50990331e-14 3.74883721 1.50990331e-14 3.74883721 6.12790698 2.66744186 6.12790698"></polygon>
                    </g>
                    <g id="Group" opacity="0.5" transform="translate(253.046512, 142.744186)" fill="#47E6B1">
                        <rect id="Rectangle" x="2.66744186" y="0" width="1.08139535" height="6.12790698"></rect>
                        <polygon id="Rectangle" transform="translate(3.208140, 3.063953) rotate(90.000000) translate(-3.208140, -3.063953) " points="2.66744186 2.13730842e-14 3.74883721 2.13730842e-14 3.74883721 6.12790698 2.66744186 6.12790698"></polygon>
                    </g>
                    <polygon id="Path" fill="#47E6B1" opacity="0.5" points="286.789651 44.3444186 289.111047 46.4711628 292.402093 41.6337209 293.562791 42.6033721 289.111047 48.4068605 285.82 44.7301163"></polygon>
                    <path d="M78.7868605,181.908721 L84.1938372,197.322209 C86.7843798,196.478721 89.4061628,195.731357 92.059186,195.080116 C93.385934,194.715973 94.7616874,194.562706 96.1360465,194.62593 C95.0546512,194.824186 95.2240698,195.534302 94.9248837,196.608488 C94.6256977,197.682674 94.715814,198.81814 94.7806977,199.931977 C95.0051645,203.675561 94.8554301,207.432203 94.3337209,211.146047 C100.056613,209.912005 105.890019,209.262238 111.744186,209.206744 C110.92614,206.060413 110.385773,202.848364 110.129302,199.607558 C110.031974,198.758439 110.031974,197.90098 110.129302,197.05186 C110.302326,195.905581 110.792558,194.831395 111.210698,193.746395 C112.157381,191.248001 112.718907,188.620253 112.876047,185.95314 C112.991034,184.926059 112.879055,183.886257 112.548023,182.907209 C112.036163,181.627558 110.893488,180.68314 109.63186,180.128023 C108.349835,179.623092 107.000434,179.30973 105.627093,179.198023 C100.44,178.556395 95.3574419,178.682558 90.1523256,178.733023 C88.1553488,178.733023 87.1784884,179.371047 85.3797674,180.236163 C84.7922093,180.513721 79.0463953,182.654884 78.7868605,181.908721 Z" id="Path" fill="#0079FF"></path>
                    <path d="M88.8474419,140.588605 C85.7005814,142.293605 83.2025581,144.957442 80.7622093,147.578023 L74.6811628,154.098837 C77.6466321,155.486366 80.5346012,157.033836 83.3323256,158.734419 C84.3632558,159.361628 85.4374419,160.071744 85.9312791,161.174767 C86.4251163,162.277791 86.2448837,163.528605 86.0213953,164.700116 C85.1380612,169.347775 83.6713826,173.86529 81.6561628,178.145465 C86.5512791,179.22686 91.5293023,180.308256 95.8945349,182.759419 C96.9975581,183.379419 98.1077907,184.100349 99.3694186,184.201279 C100.127314,184.22447 100.884378,184.133331 101.615116,183.93093 L112.688605,181.443721 C113.039737,181.39589 113.372529,181.258054 113.654651,181.043605 C113.852554,180.836627 114.005907,180.591262 114.105233,180.322674 C116.055349,176.054767 118.052326,171.581395 117.843256,166.891744 C117.742326,164.682093 117.154767,162.44 117.659419,160.288023 C118.16407,158.136047 120.38814,156.128256 122.45,156.935698 L123.358372,146.565116 C123.462907,145.397209 123.484535,144.04186 122.572558,143.292093 C121.93814,142.780233 121.055,142.755 120.28,142.49907 C119.054419,142.095349 118.117209,141.114884 117.035814,140.408372 C114.083605,138.472674 110.269884,138.703372 106.751744,139.006163 C103.759884,139.262093 100.793256,139.727093 97.8194186,139.294535 C94.6004651,138.847558 91.7852326,138.998953 88.8474419,140.588605 Z" id="Path" fill="#0079FF"></path>
                </g>
            </g>
        </g>
    </g>
</svg>