<?xml version="1.0" encoding="UTF-8"?>
<svg width="24px" height="27px" viewBox="0 0 24 27" version="1.1" xmlns="http://www.w3.org/2000/svg" xmlns:xlink="http://www.w3.org/1999/xlink">
    <!-- Generator: Sketch 52.4 (67378) - http://www.bohemiancoding.com/sketch -->
    <title>icon-lock</title>
    <desc>Created with Sketch.</desc>
    <g id="About/Team" stroke="none" stroke-width="1" fill="none" fill-rule="evenodd">
        <g id="Landing" transform="translate(-773.000000, -4605.000000)" fill="#00073D">
            <g id="icon-lock" transform="translate(773.000000, 4605.000000)">
                <path d="M2.66666667,10.6666667 L21.3333333,10.6666667 C22.8060927,10.6666667 24,11.860574 24,13.3333333 L24,24 C24,25.4727593 22.8060927,26.6666667 21.3333333,26.6666667 L2.66666667,26.6666667 C1.19390733,26.6666667 0,25.4727593 0,24 L0,13.3333333 C0,11.8666667 1.2,10.6666667 2.66666667,10.6666667 Z M10.6666667,19.64 L10.6666667,21.3333333 C10.6666667,22.069713 11.2636203,22.6666667 12,22.6666667 C12.7363797,22.6666667 13.3333333,22.069713 13.3333333,21.3333333 L13.3333333,19.64 C14.3785814,19.0365258 14.8881835,17.8062375 14.5758022,16.6404148 C14.263421,15.4745921 13.2069485,14.6639323 12,14.6639323 C10.7930515,14.6639323 9.73657905,15.4745921 9.4241978,16.6404148 C9.11181654,17.8062375 9.62141863,19.0365258 10.6666667,19.64 Z" id="Shape" fill-opacity="0.5" fill-rule="nonzero"></path>
                <path d="M12,22.6666667 C12.7363797,22.6666667 13.3333333,22.069713 13.3333333,21.3333333 L13.3333333,19.64 C14.375711,19.0353387 14.8830417,17.8067455 14.5709895,16.642791 C14.2589374,15.4788365 13.2050568,14.6687986 12,14.6666667 L12,10.6666667 L16,10.6666667 L16,6.66666667 C16,4.45752767 14.209139,2.66666667 12,2.66666667 C9.790861,2.66666667 8,4.45752767 8,6.66666667 L8,10.6666667 L5.33333333,10.6666667 L5.33333333,6.66666667 C5.33333333,2.98476833 8.31810167,5.92118946e-16 12,0 C15.6818983,-1.18423789e-15 18.6666667,2.98476833 18.6666667,6.66666667 L18.6666667,10.6666667 L21.3333333,10.6666667 C22.8060927,10.6666667 24,11.860574 24,13.3333333 L24,24 C24,25.4727593 22.8060927,26.6666667 21.3333333,26.6666667 L12,26.6666667 L12,22.6666667 Z" id="Path"></path>
            </g>
        </g>
    </g>
</svg>