<?xml version="1.0" encoding="UTF-8"?>
<svg width="28px" height="26px" viewBox="0 0 28 26" version="1.1" xmlns="http://www.w3.org/2000/svg" xmlns:xlink="http://www.w3.org/1999/xlink">
    <!-- Generator: Sketch 52.4 (67378) - http://www.bohemiancoding.com/sketch -->
    <title>icon-order-horizontal</title>
    <desc>Created with Sketch.</desc>
    <g id="About/Team" stroke="none" stroke-width="1" fill="none" fill-rule="evenodd">
        <g id="Landing" transform="translate(-813.000000, -4607.000000)" fill="#00073D">
            <g id="icon-order-horizontal" transform="translate(813.000000, 4607.000000)">
                <path d="M23.226,19.6 L9.8,19.6 C9.02680135,19.6 8.4,18.9731986 8.4,18.2 C8.4,17.4268014 9.02680135,16.8 9.8,16.8 L23.226,16.8 L20.006,13.58 C19.5339686,13.0211957 19.5716985,12.1931909 20.0925944,11.6796315 C20.6134904,11.1660721 21.4419471,11.1400902 21.994,11.62 L27.594,17.22 C28.1276,17.7643809 28.1276,18.6356191 27.594,19.18 L21.994,24.78 C21.4419471,25.2599098 20.6134904,25.2339279 20.0925944,24.7203685 C19.5716985,24.2068091 19.5339686,23.3788043 20.006,22.82 L23.226,19.6 Z" id="Path" fill-opacity="0.5"></path>
                <path d="M4.774,5.6 L18.2,5.6 C18.9731986,5.6 19.6,6.22680135 19.6,7 C19.6,7.77319865 18.9731986,8.4 18.2,8.4 L4.774,8.4 L7.994,11.62 C8.46603136,12.1788043 8.42830152,13.0068091 7.90740558,13.5203685 C7.38650964,14.0339279 6.55805291,14.0599098 6.006,13.58 L0.406,7.98 C-0.127600027,7.43561909 -0.127600027,6.56438091 0.406,6.02 L6.006,0.42 C6.55805291,-0.0599097771 7.38650964,-0.03392789 7.90740558,0.479631485 C8.42830152,0.99319086 8.46603136,1.82119573 7.994,2.38 L4.76,5.6 L4.774,5.6 Z" id="Path"></path>
            </g>
        </g>
    </g>
</svg>