<?xml version="1.0" encoding="UTF-8"?>
<svg width="26px" height="26px" viewBox="0 0 26 26" version="1.1" xmlns="http://www.w3.org/2000/svg" xmlns:xlink="http://www.w3.org/1999/xlink">
    <!-- Generator: Sketch 52.4 (67378) - http://www.bohemiancoding.com/sketch -->
    <title>icon-arrows-merge</title>
    <desc>Created with Sketch.</desc>
    <g id="About/Team" stroke="none" stroke-width="1" fill="none" fill-rule="evenodd">
        <g id="Landing" transform="translate(-723.000000, -4606.000000)" fill="#00073D">
            <g id="Group-4" transform="translate(93.000000, 4517.000000)">
                <g id="icon-arrows-merge" transform="translate(629.000000, 89.000000)">
                    <path d="M11.5714286,5.14285714 L16.7142857,5.14285714 L16.7142857,7.53428571 C16.7155483,10.2585927 17.7975525,12.8711243 19.7228571,14.7985714 L26.6271429,21.7028571 C27.1256446,22.2043339 27.1256446,23.0142376 26.6271429,23.5157143 L24.8014286,25.3414286 C24.2999518,25.8399303 23.4900482,25.8399303 22.9885714,25.3414286 L16.0842857,18.4371429 C13.1947552,15.544396 11.5716194,11.6229739 11.5714286,7.53428571 L11.5714286,5.14285714 Z" id="Path" fill-opacity="0.5"></path>
                    <path d="M16.65,9 C16.3079983,12.5668529 14.7351613,15.9034493 12.2014286,18.4371429 L5.29714286,25.3414286 C4.79566613,25.8399303 3.98576244,25.8399303 3.48428571,25.3414286 L1.65857143,23.5157143 C1.16006966,23.0142376 1.16006966,22.2043339 1.65857143,21.7028571 L8.56285714,14.7985714 C10.1314317,13.2296632 11.1506962,11.1956444 11.4685714,9 L7.71428571,9 C7.19990336,8.9927742 6.73934349,8.67963304 6.54347319,8.20394802 C6.34760288,7.72826299 6.45413179,7.18161468 6.81428571,6.81428571 L13.2428571,0.385714286 C13.7427988,-0.104326555 14.5429155,-0.104326555 15.0428571,0.385714286 L21.4714286,6.81428571 C21.8315825,7.18161468 21.9381114,7.72826299 21.7422411,8.20394802 C21.5463708,8.67963304 21.0858109,8.9927742 20.5714286,9 L16.65,9 Z" id="Path"></path>
                </g>
            </g>
        </g>
    </g>
</svg>