<?xml version="1.0" encoding="UTF-8"?>
<svg width="21px" height="17px" class="wideRight" viewBox="0 0 21 17" version="1.1" xmlns="http://www.w3.org/2000/svg" xmlns:xlink="http://www.w3.org/1999/xlink">
    <!-- Generator: Sketch 52.4 (67378) - http://www.bohemiancoding.com/sketch -->
    <title>Path</title>
    <desc>Created with Sketch.</desc>
    <g id="About/Team" stroke="none" stroke-width="1" fill="" fill-rule="evenodd">
        <g id="Landing" transform="translate(-1314.000000, -4687.000000)" fill="">
            <g id="Group-4" transform="translate(93.000000, 4517.000000)">
                <g id="leftArrow" transform="translate(1231.104118, 178.161674) rotate(-360.000000) translate(-1231.104118, -178.161674) translate(1208.104118, 155.161674)">
                    <path d="M18.678389,21.5777788 L31.3327577,21.5777788 C32.2535502,21.5777788 33,22.3242286 33,23.2450211 C33,24.1658136 32.2535502,24.9122634 31.3327577,24.9122634 L18.678389,24.9122634 L22.5130462,28.7469206 C22.9857035,29.1578103 23.1882222,29.7989262 23.0373683,30.4067736 C22.8865144,31.014621 22.4077373,31.4866547 21.7978114,31.6288719 C21.1878855,31.7710892 20.5497066,31.5594975 20.1455622,31.0810597 L13.4765931,24.4120907 C12.8411356,23.7637944 12.8411356,22.7262479 13.4765931,22.0779515 L20.1455622,15.4089825 C20.802995,14.837464 21.7895936,14.8684055 22.409922,15.4799969 C23.0302504,16.0915882 23.0751823,17.0776487 22.5130462,17.7431216 L18.6617166,21.5777788 L18.678389,21.5777788 Z" id="Path" transform="translate(23.000000, 23.336240) rotate(180.000000) translate(-23.000000, -23.336240) "></path>
                </g>
            </g>
        </g>
    </g>
</svg>