<?xml version="1.0" encoding="UTF-8"?>
<svg width="25px" height="25px" viewBox="0 0 25 25" version="1.1" xmlns="http://www.w3.org/2000/svg" xmlns:xlink="http://www.w3.org/1999/xlink">
    <!-- Generator: Sketch 52.4 (67378) - http://www.bohemiancoding.com/sketch -->
    <title>icon-cog</title>
    <desc>Created with Sketch.</desc>
    <g id="About/Team" stroke="none" stroke-width="1" fill="none" fill-rule="evenodd">
        <g id="Landing" transform="translate(-860.000000, -4607.000000)" fill="#00073D">
            <g id="icon-cog" transform="translate(860.000000, 4607.000000)">
                <path d="M6,1.8125 C7.0875,1.1625 8.275,0.6625 9.5375,0.35 C9.96481549,1.62280194 11.1573819,2.48040523 12.5,2.48040523 C13.8426181,2.48040523 15.0351845,1.62280194 15.4625,0.35 C16.725,0.6625 17.9125,1.1625 18.9875,1.8125 C18.3768003,3.0178323 18.6099521,4.47914226 19.5654049,5.43459506 C20.5208577,6.39004787 21.9821677,6.62319974 23.1875,6.0125 C23.8375,7.0875 24.3375,8.2625 24.65,9.5375 C23.3771981,9.96481549 22.5195948,11.1573819 22.5195948,12.5 C22.5195948,13.8426181 23.3771981,15.0351845 24.65,15.4625 C24.3375,16.725 23.8375,17.9125 23.1875,18.9875 C21.9821677,18.3768003 20.5208577,18.6099521 19.5654049,19.5654049 C18.6099521,20.5208577 18.3768003,21.9821677 18.9875,23.1875 C17.9125,23.8375 16.7375,24.3375 15.4625,24.65 C15.0351845,23.3771981 13.8426181,22.5195948 12.5,22.5195948 C11.1573819,22.5195948 9.96481549,23.3771981 9.5375,24.65 C8.275,24.3375 7.0875,23.8375 6.0125,23.1875 C6.62319974,21.9821677 6.39004787,20.5208577 5.43459506,19.5654049 C4.47914226,18.6099521 3.0178323,18.3768003 1.8125,18.9875 C1.14638096,17.8948259 0.653063199,16.7058036 0.35,15.4625 C1.62280194,15.0351845 2.48040523,13.8426181 2.48040523,12.5 C2.48040523,11.1573819 1.62280194,9.96481549 0.35,9.5375 C0.6625,8.275 1.1625,7.0875 1.8125,6.0125 C3.0178323,6.62319974 4.47914226,6.39004787 5.43459506,5.43459506 C6.39004787,4.47914226 6.62319974,3.0178323 6.0125,1.8125 L6,1.8125 Z M12.5,17.5 C15.2614237,17.5 17.5,15.2614237 17.5,12.5 C17.5,9.73857625 15.2614237,7.5 12.5,7.5 C9.73857625,7.5 7.5,9.73857625 7.5,12.5 C7.5,15.2614237 9.73857625,17.5 12.5,17.5 Z" id="Shape" fill-opacity="0.5" fill-rule="nonzero"></path>
                <circle id="Oval" fill-opacity="0.99" cx="12.5" cy="12.5" r="2.5"></circle>
            </g>
        </g>
    </g>
</svg>